<?xml version="1.0" standalone="no"?>
<!DOCTYPE svg PUBLIC "-//W3C//DTD SVG 20010904//EN"
 "http://www.w3.org/TR/2001/REC-SVG-20010904/DTD/svg10.dtd">
<svg version="1.0" xmlns="http://www.w3.org/2000/svg"
 width="288.188677pt" height="159.515525pt" viewBox="0 0 288.188677 159.515525"
 preserveAspectRatio="xMidYMid meet">
<metadata>
Created by potrace 1.12, written by Peter Selinger 2001-2015
</metadata>
<g transform="translate(-66.039544,365.000000) scale(0.100000,-0.100000)"
fill="#000000" stroke="none">
<path d="M1112 3383 c-62 -148 -112 -272 -112 -276 0 -5 18 -7 41 -5 l41 3 95
225 c52 124 103 246 114 273 l19 47 -43 0 -42 0 -113 -267z"/>
<path d="M1408 3410 l-3 -240 51 0 51 0 1 90 c0 55 5 96 12 105 20 24 50 28
71 9 16 -15 19 -31 19 -111 l0 -93 50 0 50 0 0 36 0 36 39 -35 c23 -21 56 -39
78 -43 50 -9 121 11 157 44 l28 27 -4 -32 -5 -33 51 0 51 0 0 84 c0 70 3 88
20 106 16 18 27 21 57 16 24 -4 38 -2 41 7 3 6 6 -39 6 -100 l1 -113 50 0 50
0 0 90 c0 77 3 93 20 110 11 11 27 20 35 20 8 0 24 -9 35 -20 17 -17 20 -33
20 -110 l0 -90 50 0 c50 0 50 0 50 32 l0 32 36 -35 c31 -30 41 -34 89 -34 38
0 59 5 74 19 19 17 21 17 21 3 0 -14 10 -17 50 -17 l50 0 0 145 0 145 -50 0
c-39 0 -50 -4 -50 -16 0 -14 -2 -14 -22 0 -14 10 -44 16 -77 16 -50 0 -57 -3
-93 -40 -21 -23 -38 -35 -38 -26 0 8 -14 26 -31 40 -36 31 -110 36 -147 10
-20 -14 -22 -14 -22 0 0 13 -15 16 -86 16 -71 0 -91 -4 -116 -21 -28 -20 -29
-20 -26 -3 2 16 -4 19 -44 22 l-48 3 0 -48 c-1 -48 -1 -48 -15 -21 -48 87
-220 92 -266 7 l-12 -23 -14 27 c-27 52 -122 75 -171 41 -12 -8 -22 -12 -23
-7 0 4 0 54 1 111 l1 102 -50 0 -50 0 -3 -240z m483 -20 c38 -21 23 -40 -31
-40 -34 0 -50 4 -50 13 0 33 43 47 81 27z m847 -26 c15 -10 22 -25 22 -49 0
-43 -22 -65 -65 -65 -58 0 -86 69 -45 110 24 24 57 26 88 4z m-728 -94 c0 -35
-1 -35 -41 -15 -27 14 -32 14 -51 0 -13 -8 -35 -15 -50 -15 -27 0 -68 30 -68
50 0 6 42 10 105 10 l105 0 0 -30z"/>
<path d="M852 3497 l-153 -62 3 -34 3 -35 145 -58 c79 -32 148 -58 153 -58 4
0 7 17 5 37 -3 36 -5 38 -83 69 -44 18 -89 35 -100 39 -15 4 7 16 80 44 103
40 112 49 103 100 -3 18 -17 14 -156 -42z"/>
<path d="M2877 3453 c-4 -3 -7 -69 -7 -145 l0 -138 50 0 50 0 0 88 c0 80 2 91
23 110 28 27 49 28 70 4 13 -15 17 -39 17 -110 l0 -92 50 0 50 0 0 113 c0 119
-8 141 -57 166 -32 16 -100 13 -128 -5 -23 -15 -25 -15 -25 0 0 12 -10 16 -43
16 -24 0 -47 -3 -50 -7z"/>
<path d="M1280 2733 c-1 -118 -3 -135 -14 -115 -22 40 -66 62 -124 62 -56 0
-82 -9 -121 -44 l-25 -21 17 27 c9 15 17 30 17 33 0 3 -26 5 -58 5 l-58 0 -35
-77 -36 -78 -36 78 -36 77 -55 0 c-31 0 -56 -3 -56 -7 1 -5 34 -69 74 -143 71
-130 74 -135 108 -138 34 -3 35 -2 84 90 l49 92 6 -50 c7 -59 21 -83 63 -112
62 -42 135 -41 200 3 l36 24 0 -24 c0 -23 3 -25 50 -25 l50 0 1 48 c0 35 2 42
9 26 11 -27 65 -72 96 -80 33 -8 84 2 106 23 17 15 18 15 18 0 0 -14 10 -17
50 -17 28 0 50 4 50 10 0 5 19 3 41 -5 73 -26 149 -12 181 34 15 21 15 21 43
-9 36 -37 96 -48 148 -26 l37 15 0 -85 0 -84 50 0 50 0 0 220 0 220 -50 0
c-39 0 -50 -4 -50 -16 0 -14 -2 -14 -22 0 -27 19 -103 21 -138 3 -31 -15 -70
-73 -70 -102 l0 -22 -55 21 c-61 24 -75 49 -25 48 3 0 19 -3 35 -6 27 -6 32
-3 43 26 6 17 9 34 6 37 -3 3 -41 6 -84 6 -87 0 -114 -14 -125 -66 -9 -41 16
-76 71 -100 44 -20 57 -42 30 -52 -8 -3 -31 3 -50 13 l-36 18 -15 -26 c-13
-25 -14 -17 -15 96 l0 122 -50 0 c-39 0 -50 -4 -50 -16 0 -14 -2 -14 -22 0
-27 19 -103 21 -138 3 -13 -7 -35 -28 -47 -46 l-23 -34 0 142 0 141 -50 0 -50
0 0 -137z m-106 -129 c26 -26 18 -34 -34 -34 -34 0 -50 4 -50 13 0 35 56 50
84 21z m414 -20 c15 -10 22 -25 22 -46 0 -42 -25 -68 -66 -68 -57 0 -85 69
-44 110 24 24 57 26 88 4z m550 0 c15 -10 22 -25 22 -46 0 -42 -25 -68 -66
-68 -57 0 -85 69 -44 110 24 24 57 26 88 4z m-858 -94 l0 -31 -32 17 c-29 15
-34 15 -59 0 -15 -9 -37 -16 -48 -16 -22 0 -61 32 -61 50 0 6 40 10 100 10
l100 0 0 -30z"/>
<path d="M3232 2738 l3 -42 95 -37 95 -36 -37 -16 c-20 -9 -64 -25 -97 -38
-60 -21 -61 -22 -61 -60 0 -22 3 -39 8 -39 4 0 70 27 147 58 l140 58 3 35 3
35 -151 62 -151 61 3 -41z"/>
<path d="M2270 2579 c0 -124 14 -160 71 -183 84 -34 195 -10 222 46 l15 31 17
-26 c21 -32 90 -67 133 -67 53 0 142 45 142 71 0 5 -14 16 -32 25 -29 15 -34
15 -59 0 -15 -9 -36 -16 -46 -16 -25 0 -63 28 -63 46 0 11 20 14 106 14 l107
0 -7 40 -6 40 55 0 55 0 -70 -105 -70 -105 150 0 151 0 -3 38 -3 37 -63 0
c-34 0 -62 1 -62 3 0 1 27 43 60 93 34 49 63 96 67 104 5 14 -13 15 -133 13
l-139 -3 -6 -30 c-4 -16 -7 -25 -8 -20 -3 25 -68 55 -120 55 -59 0 -100 -18
-130 -56 l-21 -27 0 42 0 41 -50 0 -50 0 0 -94 c0 -87 -2 -96 -22 -110 -60
-42 -88 -5 -88 116 l0 88 -50 0 -50 0 0 -101z m494 25 c26 -26 18 -34 -34 -34
-34 0 -50 4 -50 13 0 35 56 50 84 21z"/>
<path d="M1511 2135 c-1 -49 0 -51 28 -53 19 -1 31 3 35 14 11 28 -3 54 -29
54 -14 0 -25 7 -28 18 -3 9 -5 -6 -6 -33z m52 -7 c6 -19 -3 -38 -18 -38 -18 0
-28 17 -21 35 7 18 33 20 39 3z"/>
<path d="M1860 2166 c0 -8 -10 -16 -22 -18 -18 -2 -23 -10 -23 -33 0 -25 4
-30 28 -33 17 -2 28 2 29 10 4 39 2 88 -4 88 -5 0 -8 -6 -8 -14z m-3 -42 c8
-21 -13 -42 -28 -27 -13 13 -5 43 11 43 6 0 13 -7 17 -16z"/>
<path d="M2488 2163 c-2 -10 -1 -34 3 -53 6 -31 6 -30 8 18 1 52 -3 67 -11 35z"/>
<path d="M3512 2153 c-8 -8 -9 -13 -2 -13 5 0 10 -13 10 -30 0 -16 4 -30 9
-30 4 0 6 12 3 26 -2 14 0 29 6 33 6 4 6 10 -2 17 -9 8 -15 7 -24 -3z"/>
<path d="M1145 2133 c4 -10 10 -26 12 -35 3 -10 9 -18 14 -18 12 0 11 11 -3
43 -14 29 -35 38 -23 10z"/>
<path d="M1213 2123 c-15 -32 -16 -43 -4 -43 5 0 11 8 14 18 2 9 8 25 12 35
12 28 -9 19 -22 -10z"/>
<path d="M1344 2136 c-11 -29 1 -51 29 -54 15 -2 27 1 27 6 0 6 -8 8 -19 5
-10 -3 -22 0 -25 6 -5 7 3 11 19 11 20 0 26 4 23 18 -4 22 -46 29 -54 8z m46
-6 c0 -5 -7 -10 -15 -10 -8 0 -15 5 -15 10 0 6 7 10 15 10 8 0 15 -4 15 -10z"/>
<path d="M1985 2139 c-4 -5 -4 -21 -1 -35 5 -17 13 -24 31 -24 14 0 25 4 25 9
0 5 -9 7 -20 4 -11 -3 -20 0 -20 6 0 6 12 11 26 11 20 0 25 4 20 16 -3 9 -6
18 -6 20 0 9 -49 3 -55 -7z m45 -9 c0 -5 -7 -10 -15 -10 -8 0 -15 5 -15 10 0
6 7 10 15 10 8 0 15 -4 15 -10z"/>
<path d="M2150 2141 c0 -16 23 -61 31 -61 8 0 31 61 25 67 -2 3 -7 -5 -11 -16
-7 -24 -25 -28 -25 -7 0 8 -4 18 -10 21 -5 3 -10 2 -10 -4z"/>
<path d="M2315 2130 c-12 -37 41 -71 61 -39 4 7 0 9 -14 5 -11 -4 -23 -2 -27
4 -4 6 4 10 20 10 36 0 30 34 -7 38 -19 2 -28 -2 -33 -18z m45 0 c0 -5 -7 -10
-15 -10 -8 0 -15 5 -15 10 0 6 7 10 15 10 8 0 15 -4 15 -10z"/>
<path d="M2614 2136 c-10 -26 1 -51 22 -54 27 -4 47 21 39 48 -7 24 -53 28
-61 6z m46 -15 c0 -11 -5 -23 -11 -27 -15 -9 -33 12 -26 30 9 23 37 20 37 -3z"/>
<path d="M2780 2098 c1 -44 3 -50 13 -37 7 9 21 18 32 20 15 3 20 12 20 34 0
27 -4 30 -32 33 l-33 3 0 -53z m55 17 c0 -28 -29 -25 -33 3 -3 19 0 23 15 20
10 -2 18 -12 18 -23z"/>
<path d="M2961 2112 c1 -35 2 -36 8 -8 9 41 31 46 31 7 0 -17 5 -31 10 -31 6
0 10 14 10 30 0 42 27 40 33 -2 l4 -33 1 37 2 36 -50 0 -50 1 1 -37z"/>
<path d="M3174 2136 c-11 -29 1 -51 29 -54 15 -2 27 1 27 6 0 6 -8 8 -19 5
-10 -3 -22 0 -25 6 -5 7 2 11 17 11 30 0 40 10 26 27 -15 17 -48 17 -55 -1z
m46 -6 c0 -5 -7 -10 -15 -10 -8 0 -15 5 -15 10 0 6 7 10 15 10 8 0 15 -4 15
-10z"/>
<path d="M3341 2113 c1 -37 2 -37 8 -8 3 17 13 30 21 30 8 0 18 -13 21 -30 6
-29 7 -29 8 8 1 35 -1 37 -29 37 -28 0 -30 -2 -29 -37z"/>
<path d="M1180 2125 c0 -8 5 -15 10 -15 6 0 10 7 10 15 0 8 -4 15 -10 15 -5 0
-10 -7 -10 -15z"/>
</g>
</svg>
