<?xml version="1.0" standalone="no"?>
<!DOCTYPE svg PUBLIC "-//W3C//DTD SVG 20010904//EN"
 "http://www.w3.org/TR/2001/REC-SVG-20010904/DTD/svg10.dtd">
<svg version="1.0" xmlns="http://www.w3.org/2000/svg"
 width="443.536671pt" height="107.046508pt" viewBox="0 0 443.536671 107.046508"
 preserveAspectRatio="xMidYMid meet">
<metadata>
Created by potrace 1.12, written by Peter Selinger 2001-2015
</metadata>
<g transform="translate(-28.500000,314.000000) scale(0.100000,-0.100000)"
fill="#000000" stroke="none">
<path d="M830 2805 l0 -335 64 0 64 0 4 124 c3 116 5 126 27 150 34 36 82 35
110 0 19 -24 21 -40 21 -150 l0 -124 135 0 135 0 0 46 0 46 26 -32 c55 -65
159 -89 241 -55 45 19 43 20 43 -11 0 -15 -12 -38 -29 -55 -25 -24 -38 -29
-79 -29 -35 0 -57 6 -77 22 l-27 21 -54 -26 c-60 -30 -61 -39 -12 -84 40 -37
92 -53 175 -53 136 0 211 51 234 159 l11 51 69 0 69 0 0 128 c0 121 1 130 23
150 30 28 80 29 107 2 18 -18 20 -33 20 -150 l0 -130 70 0 70 0 0 148 c0 124
-3 153 -19 182 -40 75 -163 104 -235 55 l-36 -24 0 154 0 155 -70 0 -70 0 0
-135 0 -135 -70 0 c-56 0 -70 -3 -70 -15 0 -19 2 -19 -45 5 -78 40 -181 18
-239 -50 l-26 -32 0 46 0 46 -70 0 -70 0 0 -40 0 -41 -31 35 c-52 60 -144 73
-216 31 l-43 -26 0 156 0 155 -65 0 -65 0 0 -335z m831 -58 c44 -34 51 -101
14 -141 -47 -50 -145 -25 -158 41 -6 34 14 87 40 102 24 14 84 13 104 -2z"/>
<path d="M3230 3005 l0 -135 -70 0 c-56 0 -70 -3 -70 -15 0 -13 -6 -12 -40 5
-50 26 -124 26 -174 1 -29 -15 -36 -16 -32 -5 4 11 -10 14 -77 14 l-83 0 -43
-100 c-24 -55 -47 -103 -51 -105 -4 -2 -27 41 -51 96 -24 56 -48 103 -55 106
-6 2 -43 3 -82 1 l-72 -3 106 -197 105 -198 47 0 47 0 60 113 59 112 12 -57
c23 -119 102 -185 210 -176 35 3 65 13 84 27 30 21 30 21 30 1 0 -19 6 -20
140 -20 l140 0 0 53 c1 43 2 49 12 32 40 -73 109 -101 232 -93 84 6 130 27
157 73 l20 34 35 -39 c48 -53 107 -74 189 -68 70 6 146 42 166 79 13 24 15 21
-39 48 l-43 22 -28 -21 c-42 -29 -105 -27 -136 5 -51 50 -39 55 120 55 l145 0
0 34 c0 180 -232 265 -367 134 l-33 -32 0 42 0 42 -70 0 -70 0 0 -125 c0 -120
-1 -127 -25 -150 -27 -28 -71 -33 -99 -12 -24 18 -35 77 -36 190 l0 97 -65 0
-65 0 0 135 0 135 -70 0 -70 0 0 -135z m812 -232 c35 -41 33 -43 -46 -43 -80
0 -91 7 -59 42 21 24 85 24 105 1z m-976 -36 c21 -19 27 -32 27 -67 0 -35 -6
-48 -27 -67 -32 -27 -90 -31 -123 -8 -24 17 -39 71 -28 104 19 61 100 81 151
38z"/>
<path d="M1294 3110 c-28 -11 -54 -48 -54 -76 0 -29 34 -70 65 -78 29 -7 79
15 89 39 17 46 4 91 -35 110 -32 17 -36 17 -65 5z"/>
<path d="M485 2926 l-200 -83 0 -49 0 -49 190 -77 c105 -43 198 -80 208 -84
15 -5 17 2 17 49 l0 54 -136 53 c-74 28 -134 53 -132 55 2 2 63 26 136 55
l132 51 0 55 c0 30 -3 54 -7 53 -5 0 -98 -38 -208 -83z"/>
<path d="M4300 2956 l0 -54 135 -53 c75 -29 132 -55 128 -59 -4 -4 -65 -28
-135 -55 l-128 -48 0 -55 c0 -47 2 -53 18 -48 9 4 104 42 210 84 l192 77 -2
49 -3 50 -204 83 c-112 46 -205 83 -207 83 -2 0 -4 -24 -4 -54z"/>
<path d="M2758 2125 c5 -68 25 -73 52 -12 l19 42 0 -42 c1 -53 25 -58 47 -10
l15 32 -4 -32 -4 -33 73 0 c85 0 99 10 99 66 l0 39 -85 3 -86 3 -16 -43 -17
-43 0 43 c-1 33 -5 42 -19 42 -12 0 -23 -14 -34 -42 l-17 -43 0 43 c-1 26 -6
42 -13 42 -9 0 -12 -16 -10 -55z m220 23 c-7 -20 -58 -23 -58 -4 0 11 10 16
31 16 20 0 29 -4 27 -12z m57 2 c-3 -5 -13 -10 -21 -10 -8 0 -14 5 -14 10 0 6
9 10 21 10 11 0 17 -4 14 -10z m-65 -45 c0 -10 -10 -15 -30 -15 -29 0 -38 9
-23 23 13 13 53 7 53 -8z m60 0 c0 -8 -9 -15 -20 -15 -11 0 -20 7 -20 15 0 8
9 15 20 15 11 0 20 -7 20 -15z"/>
<path d="M3133 2128 l-8 -53 28 -3 c16 -2 40 4 54 14 24 15 25 15 20 0 -5 -13
1 -16 33 -16 22 0 40 5 40 10 0 6 -12 10 -26 10 -35 0 -26 23 12 31 l29 7 -27
1 c-39 1 -38 31 1 31 28 0 30 -3 37 -45 8 -59 32 -60 62 -2 l22 42 -6 -42 -6
-43 81 0 c47 0 81 4 81 10 0 6 -13 10 -29 10 -28 0 -29 1 -20 38 5 20 9 40 9
45 0 4 -27 7 -60 7 l-60 0 -23 -47 -24 -47 -7 47 -7 47 -50 0 c-44 0 -49 -2
-49 -22 l0 -22 -16 22 c-10 15 -25 22 -49 22 -33 0 -34 -1 -42 -52z m75 9 c5
-24 -15 -47 -40 -47 -16 0 -19 5 -14 23 3 12 6 28 6 35 0 20 44 10 48 -11z
m282 4 c0 -36 -12 -51 -41 -51 -37 0 -28 30 10 31 24 1 21 3 -17 15 -21 6 -3
24 24 24 17 0 24 -6 24 -19z"/>
<path d="M3582 2167 c-6 -6 -13 -24 -17 -38 -12 -49 53 -80 89 -43 15 14 16
14 16 0 0 -9 5 -16 10 -16 6 0 10 9 10 20 0 14 7 20 23 20 13 0 28 5 35 12 10
10 11 5 6 -20 -9 -45 12 -41 24 6 l10 37 1 -37 c1 -26 6 -38 16 -38 8 0 23 17
34 38 l20 37 -6 -37 -6 -38 66 0 65 0 8 43 7 42 14 -43 c19 -56 44 -54 56 6 5
27 14 42 23 42 12 0 14 -9 8 -45 -4 -29 -3 -45 4 -45 6 0 14 20 18 45 5 34 11
45 25 45 10 0 21 5 24 10 4 6 -16 10 -54 10 l-60 0 -8 -42 -8 -42 -14 42 -14
42 -79 0 -78 0 -18 -42 -17 -43 -5 40 -5 40 -62 3 c-55 2 -63 0 -63 -15 -1
-17 -1 -17 -11 0 -12 20 -71 24 -87 4z m66 -29 c4 -30 -22 -60 -43 -52 -21 8
-19 61 3 73 24 15 37 8 40 -21z m90 10 c-7 -19 -38 -22 -38 -4 0 10 9 16 21
16 12 0 19 -5 17 -12z m232 0 c-1 -41 -13 -58 -42 -58 -38 0 -32 23 8 31 l29
7 -27 1 c-40 2 -38 31 2 31 17 0 30 -5 30 -12z"/>
</g>
</svg>
