<?xml version="1.0" standalone="no"?>
<!DOCTYPE svg PUBLIC "-//W3C//DTD SVG 20010904//EN"
 "http://www.w3.org/TR/2001/REC-SVG-20010904/DTD/svg10.dtd">
<svg version="1.0" xmlns="http://www.w3.org/2000/svg"
 width="331.374315pt" height="358.848767pt" viewBox="0 0 331.374315 358.848767"
 preserveAspectRatio="xMidYMid meet">
<metadata>
Created by potrace 1.12, written by Peter Selinger 2001-2015
</metadata>
<g transform="translate(-111.504855,444.966657) scale(0.100000,-0.100000)"
fill="#000000" stroke="none">
<path d="M1980 4440 c12 -8 12 -10 -5 -10 -18 -1 -18 -2 3 -10 12 -5 28 -7 35
-4 8 3 14 -2 14 -11 0 -11 -6 -13 -21 -9 -25 8 -20 1 13 -16 18 -9 22 -9 16 0
-5 8 -3 11 6 8 8 -3 14 -10 14 -15 0 -6 4 -15 9 -20 5 -4 6 -3 2 4 -3 6 -2 14
4 18 9 5 14 -7 11 -27 0 -4 23 -28 52 -54 28 -26 44 -42 35 -35 -10 8 -18 10
-18 6 0 -4 -22 13 -48 38 -27 24 -63 52 -80 61 -50 26 -51 18 -2 -10 25 -14
64 -44 87 -67 24 -22 50 -42 59 -43 25 -4 38 -20 23 -29 -7 -5 -10 -4 -6 2 3
5 0 10 -8 10 -11 0 -12 -4 -4 -14 6 -7 15 -11 19 -8 4 2 17 -14 30 -37 13 -23
18 -38 12 -34 -8 5 -10 2 -6 -8 3 -9 10 -13 15 -10 5 3 6 -2 3 -10 -3 -9 -10
-13 -15 -10 -5 3 -2 -11 8 -30 9 -20 18 -34 21 -32 2 2 -2 14 -8 26 -9 17 -9
25 0 34 8 8 9 6 4 -8 -5 -13 -4 -17 4 -12 8 5 10 1 5 -10 -4 -12 -3 -15 5 -10
8 5 10 1 5 -10 -4 -12 -3 -15 5 -10 8 5 10 1 5 -10 -5 -12 -3 -15 6 -9 10 6
11 2 6 -15 -5 -15 -4 -20 4 -16 7 5 8 1 4 -10 -4 -12 -3 -15 5 -10 15 9 15 1
2 -24 -7 -12 -4 -35 11 -79 20 -57 22 -60 36 -44 16 19 16 18 -3 -34 -5 -15
-4 -14 10 2 16 19 16 19 6 -7 -5 -15 -7 -35 -4 -43 6 -14 8 -13 20 2 16 21 18
10 4 -18 -8 -14 -6 -28 10 -59 21 -41 29 -49 26 -27 0 6 4 12 9 12 6 0 9 -5 9
-12 -1 -7 1 -12 5 -11 19 2 31 -3 26 -11 -3 -6 -14 -8 -25 -6 -12 2 -18 0 -15
-6 4 -5 10 -7 15 -4 5 3 11 1 15 -4 3 -6 12 -8 19 -5 8 3 17 0 22 -7 4 -7 3
-10 -4 -5 -6 3 -14 2 -17 -4 -5 -8 -12 -7 -23 2 -15 12 -16 11 -3 -5 8 -9 16
-15 19 -12 8 7 62 -46 57 -55 -3 -4 3 -14 12 -21 10 -8 14 -9 10 -2 -4 6 -3
14 3 18 6 4 8 11 4 16 -3 5 -10 6 -16 3 -7 -4 -8 -2 -4 5 12 19 37 -8 32 -35
-3 -13 0 -27 6 -30 6 -4 8 -2 5 3 -4 6 0 16 9 23 13 12 14 10 10 -14 -4 -23
-3 -26 9 -16 8 7 12 17 8 24 -4 7 -1 7 7 -1 11 -10 11 -15 0 -30 -12 -15 -12
-16 0 -5 20 17 35 15 20 -3 -11 -13 -10 -14 4 -9 9 3 16 11 16 17 0 6 3 7 6 4
4 -4 1 -13 -6 -22 -15 -18 1 -20 18 -3 7 7 12 8 12 2 0 -6 -11 -16 -25 -22
-32 -15 -45 -15 -25 -1 12 8 10 9 -7 4 -13 -4 -38 2 -62 15 -23 11 -41 18 -41
15 0 -2 17 -13 38 -24 49 -27 23 -27 -31 -1 -25 13 -34 15 -23 5 32 -25 126
-56 150 -49 11 3 36 15 55 26 28 15 32 16 21 3 -7 -9 -27 -23 -44 -31 -25 -11
-26 -13 -6 -8 14 3 40 15 58 25 22 13 32 15 30 7 -3 -7 -29 -23 -59 -36 -31
-14 -41 -21 -24 -17 17 3 52 16 78 29 41 20 45 21 31 5 -10 -11 -35 -24 -56
-31 -21 -6 -36 -13 -34 -16 8 -7 104 28 116 44 7 7 17 14 23 14 22 0 -29 -41
-65 -52 -21 -6 -36 -13 -34 -16 8 -7 104 28 116 44 7 7 17 14 23 14 23 0 -29
-41 -66 -52 -32 -10 -36 -13 -21 -19 27 -11 54 -10 29 1 -14 6 -15 9 -5 9 9 1
33 10 55 21 45 23 49 24 39 9 -3 -6 -20 -18 -38 -25 l-31 -15 30 6 c17 3 43
15 59 27 18 13 27 16 24 7 -2 -8 -20 -22 -39 -31 -25 -14 -29 -18 -14 -19 20
0 20 -1 0 -8 -17 -7 -16 -9 9 -15 16 -4 31 -5 34 -1 3 3 -3 5 -14 5 -10 1 3 9
29 20 27 10 55 24 63 30 10 10 14 10 14 1 0 -7 -18 -20 -40 -30 l-39 -17 72
-24 c112 -36 104 -34 87 -20 -12 9 -9 11 15 6 17 -3 24 -3 17 1 -9 3 -4 11 17
24 41 25 53 24 21 -1 -14 -11 -20 -20 -14 -20 6 0 23 9 38 21 19 15 24 16 20
5 -6 -17 5 -21 22 -8 5 4 -1 -3 -14 -15 -13 -13 -20 -23 -17 -23 11 0 50 23
57 34 6 8 8 7 8 -1 0 -6 -5 -15 -11 -19 -8 -4 -7 -9 2 -15 11 -7 11 -9 -1 -9
-13 0 -13 -1 0 -10 8 -5 20 -10 25 -10 6 0 5 4 -2 8 -8 5 -1 13 20 26 l32 18
-20 -23 -20 -23 28 17 c15 10 27 13 27 8 0 -6 -8 -15 -17 -20 -14 -8 -15 -10
-3 -11 11 0 12 -2 3 -8 -8 -5 22 -25 82 -55 52 -26 95 -45 95 -42 0 3 -34 22
-75 42 l-74 38 32 18 32 19 -20 -23 -20 -23 29 18 c28 18 29 18 22 0 -6 -15
-5 -17 5 -6 19 18 33 14 18 -5 -11 -15 -11 -16 1 -5 21 18 34 15 19 -5 -12
-17 -12 -17 6 -1 10 10 16 20 13 23 -12 13 -197 88 -293 121 -55 18 -186 56
-292 83 -106 28 -216 60 -245 72 -176 74 -254 174 -349 444 -51 144 -85 223
-139 315 -52 90 -155 201 -177 193 -11 -4 -14 -2 -9 5 4 7 -6 17 -23 27 -33
17 -55 20 -31 5z m146 -122 l29 -33 -32 29 c-18 17 -33 31 -33 33 0 8 8 1 36
-29z m197 -395 c-5 -11 -3 -14 6 -8 10 6 11 2 6 -15 -5 -16 -4 -20 5 -15 9 5
10 1 5 -15 -5 -15 -4 -20 4 -16 13 8 14 4 4 -20 -5 -13 -11 -4 -25 35 -10 30
-15 57 -12 62 9 15 14 10 7 -8z m80 -220 c-4 -11 -3 -14 5 -9 8 5 10 1 5 -10
-4 -12 -3 -15 5 -10 8 5 10 1 5 -10 -5 -14 -8 -12 -20 10 -8 15 -11 31 -8 36
10 16 15 11 8 -7z m318 -297 c-21 -25 -65 -38 -92 -26 -23 10 -22 10 6 5 20
-3 40 1 60 14 37 24 41 25 26 7z m299 -76 c0 -11 -53 -40 -72 -39 -7 0 1 7 19
15 17 7 34 18 38 24 8 13 15 13 15 0z m80 -15 c0 -3 -15 -14 -32 -25 -18 -11
-26 -20 -18 -20 8 0 30 9 48 20 17 11 32 16 32 11 0 -5 -7 -12 -16 -15 -9 -4
-14 -9 -11 -13 4 -3 18 2 32 11 14 9 25 12 25 6 0 -6 -15 -17 -32 -25 -18 -8
-26 -14 -18 -15 8 0 30 9 48 20 17 11 32 15 32 9 0 -5 -16 -17 -36 -25 -31
-13 -41 -13 -90 3 l-54 17 29 12 c16 7 32 17 35 23 7 11 26 15 26 6z m306
-110 c-6 -16 4 -20 20 -7 5 4 1 -1 -9 -10 -11 -10 -24 -18 -31 -18 -6 0 -4 5
4 10 12 8 12 10 1 10 -11 0 -11 3 -1 15 7 8 15 15 17 15 3 0 3 -7 -1 -15z"/>
<path d="M1700 4335 c-24 -25 -42 -45 -39 -45 3 0 25 20 49 45 24 25 42 45 39
45 -3 0 -25 -20 -49 -45z"/>
<path d="M1789 4358 c-6 -22 -5 -39 3 -45 7 -4 8 -1 3 7 -6 10 -4 12 8 7 8 -3
28 -2 44 3 28 8 28 8 3 10 -23 1 -24 2 -5 11 l20 9 -20 -4 c-11 -2 -29 -7 -39
-12 -14 -5 -17 -4 -12 4 4 7 5 12 2 12 -3 0 -6 -1 -7 -2z"/>
<path d="M1705 4308 c-22 -23 -33 -36 -23 -30 10 8 18 9 22 3 7 -10 -28 -34
-36 -25 -3 2 -11 -2 -17 -10 -9 -11 -9 -16 0 -22 8 -5 9 -3 4 6 -6 9 -4 11 5
5 9 -6 11 -4 5 5 -5 8 -4 11 2 7 16 -10 62 30 58 51 -1 9 4 25 13 35 31 35 5
16 -33 -25z"/>
<path d="M1753 4328 c-4 -7 -8 -20 -10 -28 -3 -21 -85 -91 -100 -85 -17 6 -26
-12 -12 -21 8 -5 9 -3 4 6 -5 9 -4 11 4 6 16 -10 4 -25 -19 -23 -12 1 -18 7
-16 14 8 20 -2 15 -14 -6 -9 -17 -7 -19 10 -16 11 2 23 -1 26 -7 4 -6 3 -8 -3
-5 -6 4 -15 -5 -22 -19 -11 -25 -37 -24 -27 2 11 30 -5 12 -25 -27 -11 -23
-16 -38 -11 -35 6 3 13 -1 16 -10 3 -8 2 -13 -3 -10 -4 3 -13 -6 -20 -21 -11
-24 -21 -37 -72 -93 -30 -33 -138 -212 -184 -305 -62 -127 -120 -285 -142
-386 -26 -125 -23 -379 6 -519 31 -148 98 -339 181 -520 142 -306 214 -502
245 -665 22 -111 19 -265 -5 -360 -21 -82 -25 -125 -12 -125 4 0 18 7 30 16
13 9 26 13 29 10 3 -3 13 0 22 7 14 11 14 10 2 -5 -18 -24 1 -23 23 1 13 15
14 20 4 24 -7 3 6 8 29 12 25 5 40 12 36 18 -3 5 -1 7 5 3 6 -3 13 -2 17 4 4
6 -6 10 -25 10 -17 0 -29 4 -26 8 3 5 30 4 60 -1 30 -6 53 -14 50 -18 -3 -5 1
-6 9 -3 8 3 20 -2 27 -10 7 -9 16 -14 20 -11 5 3 12 0 16 -6 5 -8 3 -9 -7 -4
-8 5 -3 -4 10 -18 13 -15 28 -24 34 -20 6 3 7 2 4 -4 -3 -5 7 -20 23 -32 29
-21 40 -51 19 -51 -5 0 -7 -5 -3 -12 5 -8 2 -9 -10 -5 -10 4 -15 3 -11 -4 4
-5 1 -16 -5 -24 -9 -11 -9 -15 -1 -15 6 0 14 0 19 0 4 0 8 5 8 10 1 6 2 15 3
21 0 5 5 7 11 4 6 -4 7 1 3 11 -4 12 -3 15 5 10 8 -5 10 -1 5 11 -6 16 -5 17
13 4 10 -8 0 3 -23 23 -24 21 -43 43 -43 50 0 7 -16 27 -35 46 -19 19 -35 31
-35 26 0 -4 -12 0 -27 8 -16 8 -46 18 -68 22 -22 4 -42 8 -45 8 -3 1 -10 5
-16 9 -7 4 -18 -1 -25 -10 -8 -9 -9 -14 -4 -11 6 4 11 -2 11 -12 0 -11 -2 -17
-5 -15 -2 3 -10 0 -18 -7 -10 -8 -17 -8 -26 1 -9 10 -8 11 7 5 15 -6 18 -4 13
9 -3 9 -2 19 3 22 6 4 10 11 10 17 0 6 -12 1 -27 -13 -25 -22 -26 -22 -9 -1
20 23 10 31 -14 9 -8 -6 -6 -2 4 11 12 13 15 22 7 22 -7 0 -9 5 -5 12 5 8 1 9
-12 5 -18 -7 -18 -6 1 8 17 14 18 17 5 26 -13 9 -13 9 0 7 15 -3 20 2 20 23 0
5 -5 7 -12 3 -7 -4 -8 -3 -4 4 10 16 31 15 46 -3 10 -12 9 -16 -3 -21 -9 -3
-18 -12 -21 -19 -3 -9 0 -12 10 -8 13 5 18 -8 17 -46 -1 -8 2 -10 8 -4 6 6 6
20 -1 37 -14 38 0 56 16 20 7 -16 13 -23 13 -16 2 38 -52 92 -84 83 -5 -1 -2
6 7 15 14 14 22 15 40 7 13 -5 31 -9 41 -7 10 1 16 -3 14 -9 -3 -7 -9 -11 -15
-10 -8 2 -8 -6 0 -27 5 -17 13 -28 18 -25 4 3 13 -2 20 -10 7 -8 19 -15 27
-15 10 0 8 7 -7 28 -12 16 -22 35 -23 43 -4 26 -17 38 -37 34 -22 -4 -35 9
-25 25 4 7 11 7 18 2 7 -5 20 -8 30 -7 9 2 15 -1 12 -5 -3 -5 0 -12 6 -15 5
-4 8 -14 5 -22 -4 -9 -2 -11 6 -7 6 4 8 3 5 -3 -8 -13 28 -56 51 -60 9 -2 27
-6 40 -8 12 -3 33 -6 47 -8 14 -3 35 -13 47 -23 12 -11 18 -14 15 -7 -4 6 -3
14 3 18 6 4 8 10 5 15 -3 4 2 10 10 14 8 3 15 2 15 -3 0 -4 12 -13 28 -20 l27
-12 -30 25 c-22 18 -34 22 -47 15 -11 -6 -18 -6 -18 -1 0 11 -37 25 -61 23 -8
-1 -24 8 -34 19 -21 23 -8 27 20 6 11 -8 25 -12 32 -9 7 3 24 -2 36 -10 20
-13 24 -13 24 -1 0 8 -8 14 -18 14 -10 0 -26 11 -37 25 -11 14 -24 25 -30 25
-5 0 -24 16 -41 35 -17 20 -31 32 -31 27 0 -12 37 -51 76 -79 23 -17 25 -22
11 -22 -10 -1 -39 19 -65 44 -42 40 -46 46 -34 65 9 15 10 26 2 40 -6 10 -9
23 -8 28 2 4 -9 21 -23 37 -32 38 -85 84 -74 66 5 -9 3 -12 -5 -9 -21 7 -23
25 -3 32 13 5 32 -7 72 -49 29 -31 55 -54 57 -52 2 2 -7 16 -20 30 -14 15 -24
27 -23 28 27 10 37 3 54 -44 10 -28 25 -53 33 -55 12 -4 11 -1 -2 15 -10 10
-19 28 -21 39 -2 10 -9 30 -16 42 -7 13 -11 26 -8 28 7 7 26 -21 30 -45 4 -26
65 -93 78 -85 5 3 9 1 9 -3 0 -5 14 -14 30 -20 17 -6 30 -7 30 -2 0 5 -6 9
-14 9 -7 0 -25 9 -40 21 -14 11 -26 18 -26 15 0 -17 -50 49 -60 79 -6 19 -17
35 -23 35 -8 0 -8 3 0 11 9 9 16 8 27 -3 8 -9 12 -19 8 -23 -4 -5 -1 -5 6 -1
11 7 10 11 -2 25 -9 10 -16 24 -16 32 1 10 5 8 15 -5 8 -11 23 -21 33 -22 13
-2 12 1 -5 13 -13 9 -23 21 -23 29 0 8 -6 11 -15 8 -14 -6 -38 33 -29 47 2 4
-26 33 -62 65 -37 32 -61 60 -55 62 7 2 20 -3 30 -12 16 -15 18 -15 18 0 0 9
-10 19 -21 24 -12 4 -30 17 -40 29 -14 16 -22 18 -32 10 -7 -6 -18 -8 -23 -4
-7 4 -8 0 -4 -11 4 -11 2 -15 -7 -12 -23 7 -21 21 5 53 l25 30 19 -23 c11 -12
27 -22 38 -21 15 0 15 1 -3 9 -12 5 -28 17 -36 27 -17 23 -74 72 -64 56 10
-19 -10 -24 -25 -6 -11 13 -11 17 -1 20 6 3 12 11 12 19 0 8 4 14 9 14 13 0
32 -26 24 -33 -3 -4 2 -7 12 -7 17 0 16 3 -6 27 -13 15 -33 35 -44 44 -11 10
-16 21 -12 25 4 4 35 -20 69 -54 44 -45 57 -63 46 -67 -10 -4 5 -26 56 -77 39
-40 75 -72 79 -73 11 0 37 -36 37 -49 -1 -6 -9 -1 -19 11 -27 32 -33 29 -13
-6 9 -16 20 -27 24 -25 5 3 15 -1 23 -10 22 -22 0 -30 -25 -9 -56 47 -68 61
-59 70 6 6 -3 20 -23 39 -18 16 -26 20 -18 10 8 -11 15 -27 15 -36 0 -9 15
-33 33 -54 17 -20 32 -34 32 -30 0 3 7 1 15 -6 8 -7 15 -20 15 -29 -1 -13 -3
-13 -15 3 -16 21 -21 10 -6 -13 5 -7 13 -11 18 -8 6 4 15 -5 22 -20 6 -14 14
-23 17 -20 3 3 -1 16 -10 29 -25 35 -19 44 12 16 33 -31 81 -62 87 -56 2 2
-20 22 -50 43 -37 27 -51 43 -44 51 6 7 4 16 -6 24 -8 7 -15 20 -15 29 0 12 5
10 20 -9 11 -14 20 -21 20 -16 0 5 8 2 18 -5 15 -13 16 -12 3 3 -7 10 -17 16
-21 13 -6 -4 -30 37 -30 52 0 3 16 -9 35 -26 44 -39 114 -76 137 -72 10 1 26
-3 37 -8 14 -8 22 -7 31 3 9 12 7 13 -9 9 -12 -3 -33 2 -47 12 -15 9 -24 12
-20 7 3 -6 2 -13 -4 -17 -5 -3 -10 -2 -10 3 0 6 -10 12 -23 16 -30 7 -109 75
-104 90 2 6 -4 22 -14 35 -28 36 -22 51 6 16 14 -16 25 -25 25 -20 -1 12 -35
55 -45 55 -13 0 -35 29 -26 35 6 3 14 -3 20 -12 6 -10 11 -14 11 -10 0 5 24
-12 54 -37 43 -38 55 -44 65 -33 8 11 6 18 -12 33 l-22 19 19 -22 c11 -13 14
-23 8 -23 -11 0 -98 71 -119 97 -6 8 -13 13 -16 11 -10 -6 -54 51 -46 59 5 5
-13 30 -43 58 -29 28 -46 42 -39 33 22 -29 -8 -22 -43 10 -48 43 -28 20 67
-76 48 -49 87 -95 87 -103 0 -8 -51 37 -112 99 -62 62 -114 109 -116 103 -6
-19 -18 -12 -51 30 -21 25 -30 44 -24 50 6 6 14 1 22 -14 7 -13 22 -29 34 -37
20 -12 21 -12 8 4 -24 29 -1 32 24 4 15 -18 30 -26 40 -22 9 4 26 -2 38 -12
18 -16 20 -16 8 -1 -21 26 5 22 32 -6 49 -51 94 -106 91 -110 -3 -2 1 -17 8
-33 16 -36 43 -46 32 -12 -5 18 3 14 43 -22 70 -63 142 -118 119 -92 -26 30
-1 30 33 0 14 -13 19 -15 12 -5 -19 24 1 21 35 -5 24 -18 26 -19 14 -3 -14 17
-13 18 5 11 11 -5 25 -9 32 -9 7 0 10 -4 8 -8 -3 -3 3 -13 13 -20 15 -13 16
-12 3 4 -8 10 -9 17 -3 17 6 0 13 -4 17 -10 3 -5 13 -6 22 -3 10 4 14 2 10 -4
-4 -6 0 -16 8 -23 15 -13 12 -30 -6 -30 -6 0 -8 4 -5 9 3 5 -2 15 -12 22 -15
13 -16 12 -3 -3 8 -11 9 -18 3 -18 -6 0 -13 4 -16 9 -3 5 -15 7 -25 4 -10 -3
-22 0 -25 6 -4 5 -14 7 -22 4 -9 -3 -29 5 -46 17 -17 12 -28 18 -24 11 9 -14
-16 -15 -30 -1 -8 8 -14 7 -23 -3 -9 -11 -7 -17 6 -28 16 -13 17 -12 4 4 -12
15 -11 17 2 17 9 0 19 -5 22 -10 5 -8 12 -7 23 2 13 11 15 11 9 -4 -3 -10 1
-22 11 -30 15 -12 16 -11 3 4 -12 16 -11 18 2 18 9 0 18 -4 22 -10 3 -5 12 -7
20 -4 7 3 24 0 37 -7 13 -7 29 -12 36 -10 8 1 20 -3 28 -10 8 -6 14 -8 14 -4
0 4 8 -1 18 -12 9 -10 13 -13 8 -6 -5 7 -5 13 -1 13 4 0 2 7 -5 15 -14 17 0
21 17 4 9 -9 11 -7 9 7 -2 10 -9 19 -17 19 -14 0 -19 7 -19 23 0 4 4 1 9 -7 6
-9 11 -10 15 -2 4 6 0 13 -8 16 -9 3 -24 8 -33 12 -23 8 -30 10 -45 12 -6 0
-8 4 -5 8 4 3 0 14 -9 24 -10 11 -12 19 -4 24 5 3 31 -12 57 -34 25 -23 48
-39 51 -36 9 9 41 -26 36 -39 -5 -14 56 -66 84 -71 9 -2 18 -4 20 -4 1 -1 -2
-10 -8 -21 -8 -15 -6 -21 10 -30 11 -6 17 -16 14 -22 -5 -8 -1 -9 10 -5 10 4
24 -1 35 -12 11 -11 22 -16 26 -13 3 4 3 -1 -1 -11 -5 -14 -2 -16 12 -10 17 6
17 5 5 -11 -8 -9 -17 -13 -20 -7 -4 5 -23 -1 -46 -15 -22 -13 -35 -24 -30 -24
6 0 1 -8 -10 -16 -19 -15 -19 -15 10 -8 41 9 65 22 100 53 19 17 24 19 15 6
-26 -34 -38 -45 -66 -55 -42 -16 -19 -25 27 -10 35 12 42 12 49 -1 6 -8 6 -15
0 -17 -17 -6 -11 -18 15 -30 34 -16 40 -15 25 3 -7 8 -10 15 -7 15 2 0 10 -6
16 -14 10 -12 8 -17 -10 -26 -12 -7 -19 -8 -15 -2 6 10 -30 28 -47 24 -5 -1
-6 2 -2 8 4 6 -1 7 -12 3 -14 -6 -12 -9 15 -20 18 -7 32 -17 32 -22 0 -13 -34
-24 -38 -12 -2 6 -11 11 -20 11 -15 0 -15 2 -2 10 12 8 12 10 -5 10 -24 1 -58
24 -48 33 3 4 -3 7 -15 7 -12 0 -31 9 -42 20 -11 11 -26 20 -32 20 -7 0 -5 -5
5 -11 9 -6 15 -14 12 -18 -2 -5 9 -11 26 -15 17 -3 28 -10 24 -16 -3 -5 2 -10
12 -10 10 0 25 -9 33 -20 8 -11 18 -20 23 -20 15 0 39 -29 32 -40 -3 -5 1 -10
10 -10 11 0 15 -5 11 -15 -6 -17 12 -16 32 3 17 16 35 5 27 -16 -4 -11 2 -9
18 6 24 23 24 23 30 3 6 -24 -18 -50 -26 -29 -3 7 -6 2 -6 -11 -1 -23 0 -24
19 -6 19 18 20 17 20 -4 0 -12 -6 -24 -14 -27 -8 -3 -17 -13 -21 -22 -5 -13
-2 -13 15 3 28 25 27 -1 -2 -32 -12 -13 -22 -33 -23 -45 -1 -13 -5 -34 -9 -47
-6 -18 -5 -22 4 -16 9 6 11 4 5 -4 -15 -25 -27 5 -17 43 6 20 9 36 7 36 -3 0
-26 -13 -52 -30 -26 -16 -53 -30 -60 -30 -7 0 -13 -8 -13 -17 0 -11 3 -14 8
-7 7 11 45 34 56 34 3 0 6 -7 6 -15 0 -14 -12 -19 -32 -16 -5 0 -8 -3 -8 -8 0
-5 -20 -14 -44 -20 -37 -9 -43 -14 -39 -31 6 -22 -22 -30 -29 -8 -3 7 -12 -10
-21 -37 -21 -61 -57 -115 -77 -114 -10 0 -11 2 -2 6 20 8 14 22 -8 16 -11 -3
-20 -1 -20 5 0 6 8 13 18 15 13 4 12 5 -5 6 -12 0 -23 -4 -25 -9 -2 -6 -17 -8
-36 -4 -23 5 -30 10 -23 17 7 7 15 6 25 -2 8 -7 17 -8 20 -3 3 6 -6 13 -20 16
-20 5 -23 10 -14 21 7 9 8 15 0 20 -5 3 -10 -1 -10 -9 0 -9 -8 -16 -17 -16
-15 0 -16 -2 -3 -10 18 -11 7 -25 -14 -17 -9 4 -12 14 -9 29 3 13 2 20 -2 16
-4 -4 -26 2 -49 13 -22 11 -33 14 -23 6 27 -22 21 -62 -9 -50 -21 8 -17 26 4
19 16 -6 16 -5 0 8 -10 7 -18 26 -18 41 0 27 1 27 25 11 31 -21 34 -20 28 5
-6 21 -5 21 27 4 17 -9 34 -14 38 -11 3 3 0 6 -6 6 -7 0 -12 7 -12 16 0 11 5
14 18 9 9 -4 26 -10 36 -13 17 -4 18 -3 7 9 -8 8 -25 15 -38 15 -13 1 -30 10
-37 19 -10 14 -15 15 -21 5 -5 -8 -4 -11 2 -7 6 4 14 0 17 -9 12 -30 6 -34
-28 -17 -24 11 -33 21 -31 35 2 10 0 16 -6 13 -5 -4 -9 -2 -9 2 0 5 -25 25
-55 46 -38 26 -56 33 -61 24 -4 -7 -4 -9 0 -5 4 3 15 0 24 -7 10 -8 36 -28 60
-45 23 -17 40 -35 37 -40 -4 -6 1 -13 9 -16 9 -3 16 -13 16 -20 0 -12 -5 -12
-30 1 -16 9 -31 20 -31 25 -1 6 -2 14 -3 19 -2 18 -13 21 -25 7 -8 -10 -9 -16
-1 -21 5 -3 10 -3 10 1 0 11 29 -29 30 -40 0 -4 -8 -5 -17 -2 -16 5 -16 5 0
-8 21 -16 21 -83 0 -79 -19 4 -16 -5 7 -17 16 -9 19 -8 13 6 -5 14 -3 14 28
-1 19 -10 36 -19 38 -21 7 -6 -30 -55 -38 -50 -4 3 -8 -2 -8 -10 0 -9 6 -13
14 -9 8 3 17 5 19 5 3 0 2 5 -1 10 -7 11 8 14 18 3 4 -3 -11 -17 -34 -30 -46
-26 -62 -30 -33 -8 22 17 12 20 -19 4 -22 -10 -22 -10 1 10 22 19 22 20 2 26
-11 3 -20 11 -20 16 0 6 5 7 12 3 7 -4 8 -3 4 4 -4 7 -1 12 6 12 13 1 -14 26
-35 33 -6 2 -6 11 2 24 8 17 8 24 -1 29 -7 4 -8 3 -4 -4 4 -7 2 -12 -3 -12 -6
0 -11 -9 -11 -20 0 -11 -5 -20 -11 -20 -5 0 -8 -3 -6 -7 6 -10 -19 -34 -26
-26 -3 2 -4 -3 -3 -14 2 -10 11 -17 20 -17 8 1 14 -2 11 -6 -3 -4 2 -10 10
-14 8 -3 14 0 12 6 -1 6 4 13 12 16 9 3 11 0 6 -8 -6 -9 -4 -11 6 -5 10 6 11
5 3 -4 -14 -15 -68 -26 -59 -11 4 7 -3 9 -20 6 -22 -4 -25 -3 -15 10 12 14 0
21 -14 7 -3 -4 -16 -8 -28 -10 -17 -3 -19 -1 -8 12 7 8 9 15 5 15 -4 0 -2 6 4
14 8 9 8 16 2 20 -6 4 -8 13 -5 21 4 8 10 12 15 9 5 -3 6 3 2 13 -6 16 -5 17
13 3 19 -14 19 -14 0 8 -15 17 -22 19 -28 10 -7 -11 -12 -5 -10 13 1 9 -86 92
-100 95 -7 2 -24 6 -37 10 -17 5 -22 4 -17 -5 4 -6 11 -9 16 -6 4 3 13 -2 20
-10 7 -8 16 -13 20 -10 13 8 54 -31 46 -44 -6 -9 -11 -9 -22 0 -7 6 -12 15 -9
19 2 4 -6 7 -18 6 -26 -1 -30 -23 -9 -48 12 -14 12 -21 3 -32 -8 -9 -8 -16 -2
-20 13 -9 22 8 23 44 1 30 2 30 21 13 11 -10 17 -13 14 -6 -4 6 -4 14 1 17 4
2 8 -6 8 -20 0 -14 -5 -23 -12 -21 -7 1 -12 -2 -11 -8 1 -5 5 -9 9 -8 4 2 5
-4 1 -12 -4 -12 -9 -13 -18 -5 -10 8 -15 8 -21 -1 -5 -8 -3 -9 6 -4 9 6 11 4
5 -5 -5 -8 -4 -11 3 -6 6 3 9 -1 7 -11 -2 -10 -4 -22 -4 -27 -1 -6 -7 -2 -14
9 -10 13 -16 15 -21 6 -4 -6 -12 -9 -17 -5 -6 4 -6 11 1 19 7 8 7 16 2 19 -6
3 -15 -1 -22 -9 -7 -8 -17 -12 -22 -9 -5 3 0 16 12 29 12 13 17 25 12 29 -5 3
-19 -6 -32 -19 -23 -25 -50 -25 -30 0 7 8 7 15 1 19 -5 4 -12 2 -16 -3 -3 -6
-13 -7 -22 -4 -12 5 -14 3 -8 -7 5 -9 4 -11 -3 -6 -9 5 -8 15 3 36 9 18 11 31
5 35 -10 6 -11 5 -14 -14 0 -6 -7 -16 -15 -23 -9 -8 -11 -9 -7 -1 4 7 0 12
-11 11 -10 0 -26 3 -35 7 -10 4 -18 3 -18 -2 0 -40 243 -153 403 -188 99 -22
287 -17 362 9 80 29 138 65 126 80 -6 7 -8 16 -4 19 3 4 1 7 -5 7 -11 0 -16
-12 -14 -31 1 -3 -12 -4 -27 -1 l-27 4 26 53 c22 48 50 73 50 45 0 -5 -5 -10
-12 -10 -6 0 -8 -3 -5 -6 3 -4 2 -15 -4 -25 -7 -15 -6 -17 6 -13 8 4 16 1 16
-5 1 -6 2 -16 3 -23 3 -28 30 -14 94 49 106 105 192 246 241 395 26 78 40 94
66 74 14 -10 15 -15 5 -21 -9 -6 -11 -4 -5 5 5 8 4 11 -3 7 -12 -8 -10 -32 3
-44 4 -4 5 -3 1 4 -7 13 4 22 34 28 11 2 20 -1 20 -6 0 -6 6 -7 13 -3 6 4 9 3
4 -1 -12 -14 -49 -17 -41 -3 4 6 3 8 -4 5 -12 -8 -10 -32 3 -44 4 -4 5 -3 2 3
-4 7 3 12 18 11 14 0 22 -3 19 -8 -3 -5 1 -6 9 -3 8 3 14 -2 14 -11 0 -9 -6
-14 -14 -11 -21 8 -15 -2 8 -15 17 -9 20 -8 14 2 -6 9 -3 11 9 6 9 -4 15 -3
12 2 -3 4 3 16 14 26 22 20 28 8 8 -15 -7 -8 -3 -6 10 4 23 20 31 10 10 -14
-7 -8 0 -4 16 10 l30 25 -17 -27 c-16 -25 -16 -27 0 -21 11 4 14 3 9 -5 -5 -8
-1 -10 10 -5 12 4 15 3 10 -6 -10 -16 39 10 72 38 31 27 28 34 -8 16 -16 -9
-30 -19 -30 -24 0 -5 -8 -12 -17 -15 -13 -5 -11 0 7 21 14 15 29 31 35 35 5 4
6 10 2 14 -3 4 -23 -11 -43 -32 l-36 -39 21 42 c11 22 26 43 33 46 7 3 3 6 -9
6 -12 1 -25 -4 -28 -9 -9 -15 -25 -2 -18 16 3 8 2 14 -3 13 -32 -6 -53 2 -47
17 5 13 2 15 -15 10 -11 -4 -37 0 -57 9 -21 8 -44 15 -51 15 -8 0 -24 10 -36
22 -19 19 -19 21 -2 14 41 -17 108 -36 99 -28 -6 5 -32 17 -58 26 -34 13 -47
23 -45 35 1 9 -1 22 -6 30 -6 10 -5 12 2 7 7 -4 12 -1 13 6 1 13 2 21 14 68 4
14 7 30 7 37 1 7 5 10 10 7 5 -3 5 -10 2 -16 -4 -7 -2 -8 4 -4 9 5 9 13 2 27
-6 11 -8 24 -5 30 4 5 1 17 -6 25 -12 14 -14 14 -20 -3 -4 -10 -8 -31 -8 -48
-1 -16 -11 -50 -24 -75 -38 -76 -38 -75 -54 -54 -13 18 -14 17 -8 -8 5 -20 2
-29 -13 -37 -20 -11 -38 0 -168 98 -33 25 -79 60 -104 78 -25 19 -91 77 -148
130 -74 69 -99 98 -90 104 10 7 9 9 -4 9 -25 0 -100 70 -94 87 3 7 0 13 -7 13
-13 0 -77 60 -77 73 0 4 8 7 18 8 9 0 3 5 -14 10 -25 7 -94 75 -94 92 0 3 -12
18 -27 35 -40 42 -99 127 -82 117 8 -5 -1 5 -18 22 -31 29 -44 51 -23 38 6 -3
7 1 4 9 -3 9 -9 14 -14 11 -4 -2 -7 9 -8 26 0 19 3 27 10 23 7 -4 8 -2 4 5 -4
6 -12 8 -18 5 -7 -5 -9 -1 -5 9 4 12 2 14 -11 10 -14 -5 -15 -3 -5 7 9 10 9
21 -2 48 -18 41 -18 45 -5 37 6 -4 5 5 -2 20 -7 16 -17 24 -26 20 -12 -5 -13
-3 -2 10 7 9 10 19 6 22 -4 4 -11 1 -16 -7 -6 -9 -10 -10 -10 -3 0 6 4 14 9
17 9 6 7 64 -4 111 -5 24 -4 27 5 15 9 -12 10 -10 4 10 -11 40 -25 60 -18 25
4 -23 3 -27 -5 -15 -9 12 -10 8 -5 -15 4 -24 3 -27 -6 -15 -10 12 -11 12 -4
-5 4 -11 8 -30 8 -42 1 -11 5 -19 10 -15 5 3 7 -2 3 -11 -3 -10 -2 -17 3 -17
5 0 7 -7 4 -15 -4 -8 -10 -12 -16 -9 -5 3 5 -22 22 -56 17 -34 29 -69 26 -77
-4 -9 -2 -11 6 -7 8 5 9 2 5 -10 -4 -10 -2 -27 4 -38 6 -11 9 -22 6 -24 -5 -5
-117 177 -117 190 0 5 8 2 18 -5 15 -13 16 -12 3 3 -7 10 -17 15 -22 13 -7 -5
-119 211 -119 229 0 3 8 3 18 0 9 -2 7 1 -5 7 -29 16 -59 89 -41 100 10 7 9 9
-3 9 -13 0 -24 28 -48 113 -17 61 -34 138 -37 170 -6 51 -5 57 12 58 16 0 16
2 -3 9 -25 10 -32 55 -10 63 10 4 10 6 0 6 -18 1 -16 37 3 55 8 9 11 16 5 16
-6 0 -11 11 -11 25 0 14 5 25 11 25 5 0 8 4 4 10 -7 12 24 110 36 110 5 0 6 7
3 15 -4 8 -1 22 6 30 7 8 9 15 6 15 -4 0 -1 10 6 23 12 22 14 28 17 47 0 6 11
15 24 20 20 8 20 9 2 10 -19 1 -19 2 4 20 13 11 19 20 13 20 -20 0 13 50 41
61 25 10 26 13 10 24 -15 11 -14 14 10 26 14 8 26 18 26 24 0 5 5 11 13 13 9
2 8 0 -2 -8 -12 -9 -10 -10 10 -4 37 10 61 26 29 18 -15 -3 -30 -1 -33 5 -7
11 -1 13 38 15 12 1 20 10 22 26 3 18 2 21 -5 10 -5 -8 -7 -18 -5 -22 3 -4 1
-8 -4 -8 -19 0 -20 13 -1 33 15 16 22 18 31 9 7 -7 16 -12 21 -12 5 0 -1 9
-14 21 -13 11 -18 17 -10 13 11 -5 13 -3 8 9 -6 16 -4 15 20 0 15 -10 24 -12
20 -5 -6 8 -2 12 10 12 14 0 13 3 -6 13 -14 6 -27 19 -29 27 -4 12 -1 12 14
-2 15 -13 27 -15 49 -9 22 7 24 10 10 10 -27 1 -67 30 -60 42 4 5 4 9 1 9 -3
0 -8 -6 -13 -12z m-180 -235 c-3 -9 -9 -11 -15 -5 -5 5 -6 17 -2 26 5 13 9 14
14 5 5 -7 6 -19 3 -26z m-205 -438 c-3 -3 -13 7 -23 22 l-17 28 23 -22 c12
-12 20 -25 17 -28z m-29 -42 c17 -37 9 -36 -16 3 -12 18 -16 30 -8 28 7 -3 18
-17 24 -31z m-9 -40 c0 -7 7 -10 15 -7 11 5 15 -1 15 -22 0 -15 -3 -25 -6 -21
-7 7 -12 2 -61 -56 -18 -21 -33 -34 -34 -30 -1 4 -5 -3 -9 -17 -8 -25 -8 -24
-9 5 -1 20 -4 26 -10 17 -5 -9 -8 -4 -7 16 1 31 16 34 16 4 0 -11 3 -13 10 -6
8 8 8 19 0 38 -6 17 -6 25 0 21 6 -3 10 -12 10 -19 0 -7 7 -13 15 -13 8 0 12
4 9 8 -2 4 2 14 10 22 16 15 12 50 -8 77 -10 13 -9 13 8 0 18 -14 18 -13 11
10 -7 24 -7 24 9 5 8 -11 16 -25 16 -32z m-44 -49 c-6 -21 -9 -25 -16 -14 -6
9 -5 17 2 21 6 4 8 15 4 25 -6 15 -4 16 5 7 7 -7 9 -22 5 -39z m114 -18 c0
-14 -4 -28 -10 -31 -6 -4 -10 7 -10 24 0 17 5 31 10 31 6 0 10 -11 10 -24z
m-35 -35 c-3 -12 -11 -21 -16 -21 -5 0 -8 -10 -8 -22 1 -17 2 -19 6 -5 2 9 11
17 19 17 8 0 14 5 14 12 0 6 3 9 6 6 8 -9 -7 -79 -16 -73 -4 3 -10 -2 -14 -10
-3 -8 -17 -20 -31 -27 -14 -6 -25 -18 -25 -25 0 -8 -4 -11 -10 -8 -5 3 -10 -1
-10 -10 0 -10 -5 -13 -12 -9 -6 4 -8 3 -4 -4 3 -6 -1 -17 -9 -25 -8 -9 -15
-22 -15 -29 0 -7 -9 -24 -20 -38 -11 -14 -20 -33 -20 -43 0 -10 -4 -15 -10
-12 -6 4 -10 -5 -10 -20 0 -17 -4 -24 -12 -19 -8 5 -9 2 -5 -10 4 -9 2 -25 -5
-35 -8 -13 -8 -25 1 -47 l11 -29 -6 34 c-4 23 -3 31 5 27 7 -5 11 4 12 26 0
28 2 30 10 13 8 -17 9 -17 4 5 -5 26 14 80 27 80 5 0 8 9 8 20 0 11 5 20 10
20 6 0 10 9 10 20 0 11 5 20 10 20 6 0 10 4 10 10 0 5 8 19 18 30 l17 21 7
-23 c6 -17 6 -14 3 9 -3 25 0 35 14 42 10 6 22 7 26 3 5 -4 5 -1 1 6 -6 11 0
14 20 11 4 0 11 5 16 13 7 9 8 7 4 -7 -10 -43 -16 -110 -7 -90 7 18 9 16 16
-14 6 -27 4 -37 -9 -46 -9 -7 -16 -18 -16 -26 0 -11 2 -11 10 1 5 8 10 11 10
5 0 -5 4 -4 8 3 6 8 15 -8 27 -47 10 -33 22 -58 26 -55 5 3 6 -2 3 -10 -3 -9
-1 -16 5 -16 6 0 8 -8 4 -17 -6 -16 -5 -17 13 -3 18 14 18 14 5 -3 -15 -18
-15 -18 -29 0 -13 17 -14 16 -8 -7 7 -24 7 -25 -10 -5 -16 20 -16 19 -10 -5 7
-24 6 -24 -8 -6 -9 11 -16 17 -16 13 0 -14 33 -88 37 -83 3 2 -1 14 -7 27 -11
19 -10 21 4 16 10 -4 15 -3 12 2 -3 5 1 12 10 15 26 10 34 7 27 -11 -4 -11 -3
-14 5 -9 8 5 10 1 5 -11 -6 -16 -5 -17 13 -3 15 11 16 11 7 0 -18 -20 -16 -35
3 -20 13 12 14 10 3 -13 -16 -35 -34 -34 -49 3 -7 17 -15 29 -17 26 -2 -2 3
-19 12 -37 16 -29 16 -31 0 -26 -9 4 -13 3 -10 -2 3 -5 1 -12 -3 -15 -8 -4
-46 65 -47 84 0 3 -6 14 -13 25 -12 19 -13 19 -7 -3 8 -29 -22 -63 -37 -41 -7
10 -7 7 -3 -10 5 -14 2 -26 -5 -31 -9 -5 -7 -17 9 -46 11 -22 20 -35 21 -31 0
4 -7 21 -15 37 -15 28 -13 35 9 31 5 -1 6 5 3 13 -12 30 11 25 23 -4 7 -17 15
-29 17 -26 2 2 -3 18 -11 35 -9 16 -12 32 -7 35 4 3 16 -11 25 -32 18 -39 20
-59 5 -54 -5 1 -8 -4 -7 -10 2 -7 -3 -12 -9 -10 -7 1 -13 -5 -13 -14 0 -14 2
-15 18 -3 9 8 24 21 32 30 32 35 113 59 94 28 -3 -5 0 -9 6 -9 6 0 8 -4 5 -10
-3 -5 -1 -10 5 -10 6 0 8 -4 5 -10 -3 -5 -1 -10 5 -10 6 0 8 -5 5 -10 -4 -6
-11 -7 -17 -4 -7 5 -8 2 -3 -6 6 -10 4 -12 -8 -7 -10 3 -17 2 -17 -4 0 -6 -4
-7 -10 -4 -5 3 -10 1 -10 -6 0 -8 -4 -8 -15 1 -13 11 -14 10 -8 -5 5 -14 3
-17 -10 -12 -10 4 -14 2 -11 -7 3 -7 -4 -21 -16 -31 -11 -10 -20 -14 -20 -8 0
5 -7 18 -15 29 -14 17 -14 15 0 -13 13 -27 13 -36 3 -53 -7 -11 -18 -18 -24
-16 -7 3 -9 -5 -6 -21 3 -16 1 -24 -5 -20 -6 4 -10 -1 -9 -11 0 -9 -4 -16 -10
-15 -7 1 -10 -6 -7 -17 5 -18 24 -29 22 -12 -5 28 2 35 17 16 15 -18 15 -18 5
3 -15 29 9 79 29 60 10 -10 10 -8 1 11 -11 20 -8 26 12 23 4 0 6 2 6 6 -5 29
2 36 17 17 15 -18 15 -18 5 2 -13 28 -2 39 16 16 13 -15 13 -15 4 4 -13 27 -2
39 15 16 12 -15 12 -14 7 7 -4 16 -2 22 5 18 5 -4 12 -1 15 5 2 7 11 -2 21
-19 9 -18 19 -33 22 -33 2 0 -2 13 -10 28 -13 26 -13 29 6 41 11 7 17 8 13 2
-6 -10 7 -16 28 -12 5 1 6 -3 2 -9 -3 -6 -11 -8 -16 -5 -5 3 -6 -2 -2 -11 5
-12 3 -15 -6 -9 -10 6 -11 3 -2 -14 13 -23 23 -29 15 -8 -3 8 3 20 13 28 16
13 17 12 4 -3 -9 -13 -10 -18 -2 -18 7 0 9 -5 5 -12 -5 -8 -2 -9 11 -4 15 5
16 4 5 -9 -7 -8 -17 -12 -22 -9 -6 4 -5 -3 1 -15 12 -22 27 -30 16 -8 -4 6 3
1 14 -12 23 -25 28 -47 9 -35 -7 4 -8 3 -4 -5 4 -6 11 -9 16 -6 4 3 16 -8 25
-23 l18 -27 -21 19 c-12 11 -22 16 -22 11 0 -4 -7 -2 -15 5 -11 9 -15 9 -15 1
0 -7 -5 -9 -12 -5 -7 4 -8 3 -4 -5 4 -6 12 -8 18 -5 6 4 14 0 19 -7 4 -8 13
-14 18 -14 15 0 71 -44 71 -56 0 -6 -5 -7 -12 -3 -7 4 -8 3 -4 -5 4 -6 11 -9
16 -6 11 7 32 -30 23 -39 -3 -3 -1 -6 6 -6 7 0 10 -4 7 -9 -7 -11 19 -33 28
-24 4 4 4 -1 0 -11 -5 -13 -4 -17 4 -12 8 5 10 2 5 -9 -5 -15 -9 -14 -27 7
-12 13 -18 19 -13 14 14 -19 7 -28 -10 -15 -16 13 -17 12 -4 -3 7 -10 17 -16
21 -13 4 3 11 -2 14 -11 4 -10 2 -13 -7 -8 -7 5 -7 1 2 -10 11 -13 16 -14 22
-4 7 10 9 10 9 -1 0 -11 3 -10 13 3 13 18 15 17 35 -9 12 -15 22 -24 22 -20 0
4 7 2 15 -5 9 -7 13 -15 11 -18 -3 -2 6 -14 20 -24 19 -15 22 -23 14 -33 -9
-10 -6 -17 12 -26 21 -12 27 -15 45 -18 4 0 2 -6 -5 -13 -9 -9 -7 -17 9 -34
l21 -23 -23 6 c-13 3 -36 17 -51 31 -16 14 -28 22 -28 17 0 -4 -9 0 -20 10
-23 21 -28 44 -5 25 8 -7 15 -9 15 -4 0 4 19 -10 42 -31 23 -22 37 -33 30 -24
-6 9 -8 20 -4 24 4 5 1 5 -7 0 -10 -6 -12 -4 -6 5 6 9 4 11 -5 5 -9 -6 -11 -4
-5 6 5 8 4 11 0 6 -5 -4 -17 0 -27 10 -10 9 -18 13 -18 9 0 -4 -6 -4 -12 1 -7
4 -20 8 -28 10 -8 1 -20 10 -27 19 -10 14 -13 15 -14 3 0 -10 -2 -10 -6 -1 -2
6 -9 9 -14 6 -6 -3 -6 -11 2 -20 6 -7 15 -12 19 -9 5 3 6 -5 3 -17 -4 -22 -4
-22 10 -5 14 17 17 16 47 -22 18 -22 38 -38 44 -34 6 3 8 2 3 -2 -4 -5 9 -26
30 -47 48 -49 31 -50 -19 -1 -21 20 -48 38 -60 40 -20 2 -19 -1 12 -29 19 -18
34 -36 33 -40 -2 -4 4 -5 12 -2 14 6 120 -84 111 -94 -3 -2 -11 0 -18 4 -7 4
-21 9 -31 9 -10 1 -46 28 -79 61 -54 52 -59 55 -40 23 12 -20 20 -38 17 -41
-3 -3 5 -13 17 -24 12 -10 18 -13 14 -6 -11 18 2 15 37 -10 18 -13 38 -21 46
-20 7 2 27 -9 45 -25 19 -17 23 -19 12 -5 -11 12 -14 22 -8 22 6 0 13 -4 17
-10 3 -5 13 -6 22 -3 10 4 14 2 10 -4 -4 -5 6 -21 21 -34 l27 -24 -24 28 c-23
26 -18 40 6 16 9 -9 11 -7 9 7 -2 11 -10 18 -18 17 -8 -2 -32 15 -53 37 -21
22 -33 40 -26 40 7 0 10 4 6 10 -3 5 -11 7 -18 4 -7 -2 -35 18 -62 46 -46 47
-55 72 -12 33 10 -10 29 -18 41 -18 13 0 36 -16 56 -38 18 -21 29 -37 24 -35
-5 2 -10 -1 -12 -7 -1 -5 7 -11 18 -11 11 -1 23 -3 28 -4 4 -1 10 -2 13 -2 3
1 19 -12 35 -29 28 -29 28 -30 7 -35 -23 -6 -24 -23 -4 -47 11 -14 9 -15 -16
-13 -15 2 -28 5 -28 6 0 2 -20 6 -68 13 -16 2 -47 22 -70 43 -40 37 -40 37 -9
4 32 -36 45 -62 17 -38 -8 7 -35 29 -59 48 -25 19 -47 42 -51 51 -3 9 -12 16
-20 16 -8 0 -15 -7 -15 -16 0 -14 -2 -14 -10 -1 -13 20 -13 33 0 25 24 -15 4
8 -81 96 -51 52 -84 84 -74 72 26 -33 -4 -31 -34 1 -21 23 -21 54 0 41 22 -14
6 12 -19 29 l-27 20 19 -22 c15 -18 16 -22 4 -22 -20 0 -52 36 -43 50 3 5 11
8 16 5 17 -11 9 2 -13 21 -14 12 -18 13 -10 3 18 -23 2 -32 -22 -12 -20 18
-20 17 -6 -2 8 -11 36 -46 63 -77 26 -31 43 -59 38 -62 -7 -5 -56 47 -99 104
-2 2 -7 -2 -12 -10 -7 -12 -11 -12 -27 0 -17 14 -17 14 0 -7 23 -27 6 -39 -18
-13 -14 16 -15 23 -6 34 10 12 8 19 -8 35 -12 12 -21 28 -21 38 0 14 3 14 23
-3 l22 -19 -19 23 c-13 15 -16 26 -9 33 15 15 48 -38 34 -55 -8 -10 -5 -18 12
-32 l22 -19 -18 22 c-18 20 -18 22 0 32 10 6 14 11 10 11 -5 0 -5 5 -2 10 5 8
12 7 23 -2 15 -11 15 -11 5 3 -19 23 -3 32 21 12 20 -17 20 -17 7 0 -20 26 -5
33 21 11 l23 -19 -19 23 c-15 17 -16 22 -5 22 8 0 21 -6 28 -12 11 -10 13 -10
7 0 -11 19 5 14 33 -10 14 -13 19 -15 12 -5 -8 10 -9 17 -3 17 12 0 92 -98 92
-113 0 -6 -10 -1 -22 10 -13 11 -28 19 -34 16 -6 -2 -17 3 -24 12 -7 8 -20 15
-29 15 -9 0 -23 6 -30 12 -10 11 -12 10 -9 -2 2 -8 -3 -14 -9 -13 -18 4 -16
-14 3 -21 9 -3 12 -2 8 5 -10 17 55 3 77 -17 13 -12 19 -13 19 -4 0 10 3 10
15 0 17 -14 10 -34 -8 -23 -7 4 7 -15 31 -41 56 -65 54 -91 -3 -29 -24 26 -44
43 -45 37 0 -5 14 -23 30 -39 17 -16 30 -33 30 -39 0 -5 -19 8 -42 29 l-43 40
38 -41 c38 -41 61 -50 85 -31 6 5 12 6 12 1 0 -5 5 -2 10 6 6 9 10 10 10 3 0
-7 10 -18 22 -24 21 -11 21 -11 -3 18 -17 21 -28 28 -36 21 -9 -7 -18 0 -32
23 -11 18 -18 36 -16 40 3 4 -1 6 -8 5 -18 -2 -20 17 -2 20 8 1 15 -1 15 -5 0
-4 7 -8 15 -8 17 0 28 24 18 40 -4 7 0 7 9 -1 25 -20 29 0 6 28 -14 17 -18 19
-14 7 3 -10 2 -16 -3 -13 -11 7 -23 -22 -15 -35 3 -5 3 -9 1 -9 -2 0 -32 36
-66 80 -35 44 -66 80 -68 80 -3 0 0 -7 7 -15 17 -21 1 -19 -23 3 -11 9 -17 11
-13 5 5 -9 -1 -13 -21 -13 -16 0 -35 6 -43 13 -12 10 -12 9 -2 -4 18 -23 2
-32 -22 -12 -20 17 -20 17 -7 0 13 -16 12 -21 -6 -38 l-20 -20 -17 26 c-17 25
-17 28 0 46 9 10 21 16 26 13 4 -3 8 -2 7 3 -4 21 2 24 19 12 15 -12 16 -12 5
2 -16 20 -5 33 15 16 13 -10 14 -9 4 10 -14 26 -34 41 -26 19 7 -19 -7 -21
-26 -3 -12 10 -12 9 -1 -6 18 -23 7 -34 -16 -16 -16 13 -17 12 -5 -3 14 -18 7
-43 -9 -32 -5 3 -9 2 -8 -3 4 -21 -2 -24 -18 -12 -16 13 -17 12 -4 -4 10 -12
11 -21 4 -28 -7 -7 -16 -2 -27 16 -17 26 -13 51 6 39 13 -8 4 8 -29 52 -12 17
-20 33 -18 36 3 3 -1 8 -8 11 -11 4 -13 0 -10 -14 3 -10 0 -19 -6 -19 -6 0
-10 -3 -10 -7 5 -29 -2 -36 -17 -17 -15 18 -15 18 -5 -3 18 -36 12 -50 -9 -24
-21 25 -28 67 -9 55 8 -4 8 0 0 15 -7 11 -14 21 -17 21 -3 0 -2 -4 1 -10 3 -5
3 -16 -2 -22 -4 -7 -8 -17 -9 -23 -2 -5 -9 -31 -17 -57 -11 -36 -12 -51 -3
-63 9 -12 11 -8 11 22 0 28 4 37 14 35 11 -2 12 0 3 10 -6 8 -8 19 -3 26 4 8
13 1 25 -19 13 -22 21 -27 26 -19 5 8 13 9 21 4 12 -7 12 -5 1 9 -14 16 -8 42
8 32 4 -3 6 4 3 15 -8 29 10 24 30 -9 19 -32 12 -47 -12 -28 -14 10 -14 10 -3
-5 14 -17 8 -43 -8 -33 -4 3 -6 -5 -2 -17 l5 -23 -23 20 -23 20 18 -28 c10
-15 14 -31 11 -35 -9 -8 -36 26 -36 44 0 6 -8 15 -17 19 -14 5 -15 4 -6 -6 8
-7 9 -18 4 -28 -5 -9 -11 -20 -13 -26 -1 -5 -7 -9 -11 -7 -4 1 0 -9 9 -23 20
-31 24 -31 16 -2 -5 20 -4 21 14 7 15 -11 16 -11 7 0 -7 8 -13 23 -13 33 0 17
3 16 21 -7 15 -19 18 -30 11 -39 -6 -7 -12 -16 -14 -22 -1 -5 -5 -9 -8 -8 -3
1 -4 -16 -2 -38 2 -21 8 -39 12 -39 5 0 6 10 2 22 -4 16 -2 19 8 13 9 -5 11
-4 6 4 -4 6 -4 26 -1 43 l7 31 18 -24 c21 -27 16 -46 -8 -27 -14 10 -15 10 -4
-2 14 -16 17 -54 3 -46 -5 4 -7 -4 -3 -16 3 -13 1 -19 -5 -15 -7 5 -9 -1 -6
-15 5 -23 5 -23 -15 1 l-19 24 2 -39 c2 -21 1 -33 -2 -26 -3 6 -9 9 -15 6 -7
-4 -7 0 0 13 7 12 7 25 1 34 -13 20 -11 31 4 23 10 -6 10 -4 0 7 -15 15 -17
43 -3 34 10 -6 -1 15 -39 78 -24 39 -39 52 -21 16 6 -11 9 -25 7 -32 -2 -7 0
-21 5 -32 8 -18 8 -19 -5 -3 -8 10 -18 14 -22 10 -4 -4 -3 2 3 14 6 11 7 26 2
34 -11 19 -10 81 2 74 5 -3 2 8 -7 26 -15 30 -15 32 -1 27 15 -6 15 -4 1 23
-9 17 -17 30 -18 30 -5 0 1 -157 7 -175 7 -20 7 -20 -5 0 -12 18 -16 35 -18
73 -1 7 -6 10 -12 6 -8 -4 -8 -1 -1 12 5 11 6 28 1 39 -11 28 -11 37 1 30 6
-3 7 1 3 10 -8 24 -24 -3 -17 -30 4 -18 4 -18 -6 -2 -6 9 -8 22 -5 27 3 6 3
10 -2 10 -4 0 -9 25 -9 56 -1 40 1 53 8 43 7 -10 8 -9 3 6 -16 44 -18 58 -8
52 6 -4 8 4 5 20 -3 17 -1 24 6 19 8 -5 8 2 1 24 -13 37 -22 40 -13 4 5 -20 4
-25 -5 -20 -9 6 -10 0 -6 -21 5 -21 4 -24 -4 -13 -13 19 -14 9 -2 -23 8 -20 6
-27 -5 -31 -12 -5 -14 -1 -9 15 5 15 4 19 -4 15 -8 -5 -8 0 -1 19 12 32 12 38
1 31 -4 -3 -6 6 -3 20 3 19 7 22 14 12 12 -17 -2 42 -14 62 -7 11 -8 7 -4 -12
3 -14 1 -37 -4 -50 -10 -21 -10 -21 -5 5 3 16 2 26 -3 23 -5 -3 -1 29 9 72 18
73 23 112 12 84 -2 -6 -9 -9 -15 -6 -7 5 -9 -2 -4 -20 5 -20 4 -26 -5 -20 -9
5 -10 -1 -5 -22 5 -22 4 -25 -4 -12 -7 11 -7 31 0 60 14 61 11 80 -6 33 -10
-31 -12 -33 -9 -10 15 92 28 145 37 145 5 0 7 3 5 8 -3 4 3 25 14 46 10 22 19
46 19 53 0 7 5 13 10 13 6 0 10 9 10 20 0 11 5 20 10 20 6 0 10 9 10 20 0 11
5 20 10 20 6 0 10 5 10 11 0 16 36 59 44 52 3 -3 6 2 6 13 0 16 2 17 10 4 8
-12 10 -10 10 10 0 24 -2 23 -40 -18 -22 -24 -40 -47 -40 -52 0 -6 -4 -10 -10
-10 -5 0 -10 -10 -10 -22 -1 -20 -2 -21 -11 -6 -13 23 32 107 89 166 45 45 71
47 57 3z m-138 -62 c9 -9 5 -23 -13 -58 -13 -25 -35 -73 -49 -106 -27 -66 -33
-65 -10 2 8 23 12 50 9 60 -5 15 -4 16 5 3 6 -8 11 -12 11 -8 0 3 3 14 7 24 4
12 3 15 -5 10 -9 -5 -9 -1 -3 16 5 13 15 22 25 20 11 -2 16 4 16 20 0 16 -3
19 -9 10 -7 -11 -9 -11 -14 2 -7 19 13 22 30 5z m-14 -136 c-3 -7 -9 -13 -14
-13 -5 0 -9 -11 -9 -24 0 -14 -4 -28 -10 -31 -5 -3 -10 -15 -10 -26 0 -11 -4
-18 -9 -15 -10 6 -2 56 8 56 4 0 8 6 8 14 0 28 26 78 34 65 4 -7 5 -18 2 -26z
m-63 -138 c-4 -5 -10 -19 -12 -30 -3 -11 -5 1 -4 26 1 38 3 43 13 30 6 -9 8
-20 3 -26z m324 -699 c13 -21 14 -28 2 -50 -10 -20 -15 -23 -26 -13 -18 15 32
-54 82 -114 21 -26 38 -50 38 -54 0 -4 10 -15 23 -25 12 -10 19 -22 14 -26 -4
-4 -22 6 -39 22 -18 16 -27 22 -20 12 9 -10 9 -18 3 -22 -6 -4 -16 2 -23 14
-14 22 -29 27 -25 8 1 -7 -3 -12 -9 -11 -8 2 -10 -6 -6 -20 5 -20 4 -21 -12
-8 -11 9 -15 22 -12 37 4 14 0 27 -12 35 -15 13 -16 12 -3 -4 18 -23 5 -36
-15 -15 -11 10 -13 21 -8 30 5 7 9 16 9 21 0 17 21 10 30 -10 5 -13 16 -25 24
-28 11 -5 12 -3 1 10 -7 9 -10 19 -6 23 4 4 16 -3 26 -15 21 -27 27 -28 27 -9
0 8 -5 14 -10 13 -5 -1 -14 7 -20 17 -17 28 -47 58 -47 47 0 -6 5 -13 10 -16
6 -3 10 -13 10 -22 0 -13 -3 -13 -16 -2 -9 8 -14 22 -11 37 3 16 -2 33 -14 45
-20 22 -25 47 -9 47 5 0 7 7 4 15 -7 17 6 20 24 5 9 -7 9 -7 2 2 -10 11 -14
48 -6 48 2 0 11 -11 20 -24z m36 -116 c0 -11 -6 -9 -21 7 -12 11 -18 26 -14
33 8 13 34 -16 35 -40z m-171 -8 c0 -15 2 -42 5 -61 3 -18 3 -31 -1 -27 -6 5
-8 18 -12 61 -1 6 -5 4 -10 -3 -7 -11 -9 -10 -14 3 -4 9 -3 13 3 10 10 -6 14
6 10 39 -1 11 3 16 9 11 6 -3 11 -18 10 -33z m265 -45 c15 -24 -3 -35 -20 -13
-8 11 -14 24 -14 29 0 13 22 3 34 -16z m-164 -137 c0 -10 -6 -8 -18 7 l-17 23
-1 -28 c-1 -15 1 -21 3 -14 5 13 23 7 23 -9 0 -6 -4 -7 -10 -4 -5 3 -10 1 -10
-6 0 -29 -14 5 -16 39 -1 20 -5 46 -9 57 -4 13 4 7 24 -15 17 -19 30 -42 31
-50z m14 36 c29 -39 36 -67 11 -46 -8 7 -15 19 -15 26 0 8 -4 14 -10 14 -5 0
-14 9 -20 20 -17 33 5 23 34 -14z m86 -22 c0 -8 -5 -14 -11 -14 -5 0 -8 -4 -4
-9 9 -16 -12 -22 -25 -6 -12 15 -5 39 10 30 4 -3 6 5 2 17 -5 21 -4 22 11 9 9
-7 17 -20 17 -27z m50 -11 c0 -24 -25 -9 -28 17 -3 21 -2 22 12 11 9 -7 16
-20 16 -28z m106 -15 c29 -28 51 -55 48 -60 -3 -4 1 -8 8 -8 22 0 124 -113
138 -152 8 -21 18 -34 24 -31 6 4 3 -3 -6 -14 -10 -11 -18 -26 -19 -34 0 -8
-6 -2 -12 12 -8 17 -19 25 -30 23 -11 -1 -17 0 -14 2 2 3 -25 33 -60 67 -35
34 -59 63 -53 65 6 2 22 -5 34 -17 l23 -22 -1 25 c-1 15 -29 53 -74 102 -67
73 -82 94 -65 94 3 0 30 -23 59 -52z m-52 8 c6 -10 37 -43 69 -74 32 -31 53
-58 47 -60 -14 -5 -71 48 -64 60 3 4 0 8 -7 8 -18 0 -79 61 -79 78 0 18 21 11
34 -12z m-60 -25 c24 -26 26 -31 14 -50 -17 -27 -20 -27 -47 9 -14 20 -20 38
-16 50 8 27 16 25 49 -9z m239 -44 c-3 -5 -20 6 -39 24 -18 18 -31 36 -28 41
3 4 20 -6 39 -24 18 -18 31 -37 28 -41z m-354 37 c3 -16 1 -17 -13 -5 -19 16
-21 34 -3 29 6 -3 14 -13 16 -24z m86 -49 c32 -36 55 -68 52 -71 -8 -9 -27 5
-27 20 0 7 -6 13 -14 13 -8 0 -11 -8 -8 -20 4 -14 1 -18 -7 -13 -8 5 -10 19
-6 37 4 16 4 29 1 29 -8 0 -37 -70 -41 -98 -4 -39 -12 -34 -12 8 0 21 3 37 8
35 4 -3 5 5 1 17 -3 13 -1 19 5 15 7 -5 9 1 5 15 -3 13 -1 19 5 15 7 -5 9 0 6
13 -3 12 -8 18 -11 15 -6 -6 -32 14 -32 26 0 21 21 5 75 -56z m-98 -5 c-1 -22
-2 -40 -3 -40 -1 0 -9 12 -19 26 -9 15 -12 23 -6 20 11 -7 15 6 12 33 -2 7 2
10 8 7 5 -4 9 -24 8 -46z m658 -49 c-6 -6 -95 79 -95 92 0 4 23 -13 50 -39 28
-26 48 -50 45 -53z m-623 43 c-2 -21 -8 -41 -13 -42 -5 -2 -7 -7 -5 -11 3 -4
-1 -8 -9 -8 -18 0 -20 14 -4 19 6 2 12 23 12 46 0 25 5 41 11 39 6 -2 10 -22
8 -43z m464 19 c-10 -11 -19 -7 -22 10 -2 15 0 16 12 6 8 -6 12 -14 10 -16z
m-296 -82 c0 -4 -13 -21 -29 -38 -24 -27 -27 -34 -15 -44 16 -13 18 -29 4 -29
-5 0 -10 5 -10 11 0 6 -14 22 -30 36 -17 13 -27 30 -24 35 5 7 11 5 19 -5 14
-20 26 -22 23 -4 -2 6 2 11 9 10 8 -2 10 4 6 14 -5 13 -2 15 12 10 14 -6 16
-5 7 6 -7 8 -9 17 -5 20 6 7 33 -11 33 -22z m-114 -24 c-3 -12 2 -26 12 -34
13 -11 14 -16 4 -19 -6 -3 -10 -10 -6 -15 3 -5 1 -9 -5 -9 -6 0 -8 -7 -5 -15
9 -21 25 -19 17 3 -5 13 -3 14 6 6 10 -9 10 -17 2 -32 -6 -10 -7 -22 -4 -26 3
-3 1 -6 -6 -6 -7 0 -9 -5 -5 -11 4 -8 14 1 25 22 9 19 15 37 12 41 -2 5 0 8 6
8 5 0 13 -5 17 -11 4 -8 9 -7 15 2 6 11 11 11 20 2 9 -9 8 -18 -5 -37 -9 -15
-21 -26 -27 -26 -6 0 -7 -4 -4 -10 3 -5 1 -10 -5 -10 -6 0 -8 -4 -5 -10 3 -5
1 -10 -5 -10 -6 0 -8 -4 -5 -10 3 -5 1 -10 -5 -10 -7 0 -10 6 -7 13 3 6 12 29
21 49 12 29 13 39 3 44 -6 4 -9 4 -5 -1 4 -4 3 -14 -2 -21 -6 -6 -13 -22 -15
-35 -3 -12 -9 -27 -15 -33 -7 -7 -11 -7 -10 -1 4 21 0 36 -9 30 -9 -5 -9 4 1
45 1 8 -3 14 -9 13 -7 -2 -13 2 -13 8 0 5 -4 8 -8 5 -11 -6 -9 79 2 112 9 27
30 18 22 -11z m44 6 c0 -13 -3 -13 -15 -3 -8 7 -12 16 -9 21 8 13 24 1 24 -18z
m116 -81 c-22 -5 -20 -11 9 -34 14 -11 23 -24 20 -29 -4 -5 0 -9 7 -9 21 0 85
-64 82 -83 -1 -9 4 -21 12 -28 8 -6 14 -19 14 -28 -1 -10 -12 -2 -35 24 -18
21 -32 42 -30 46 3 3 -10 19 -28 35 -18 16 -24 19 -13 7 19 -23 19 -23 -1 -23
-11 0 -28 9 -38 20 -16 17 -16 20 -2 26 12 4 8 12 -20 39 -34 32 -34 33 -17
54 17 19 19 20 37 3 17 -15 17 -17 3 -20z m-115 5 c-1 -12 -15 -9 -19 4 -3 6
1 10 8 8 6 -3 11 -8 11 -12z m98 -60 c6 -8 8 -17 4 -20 -7 -8 -33 11 -33 24 0
13 16 11 29 -4z m10 -66 c-6 -2 -19 6 -30 18 -24 25 -31 27 -22 4 4 -11 3 -14
-5 -9 -8 5 -10 1 -5 -10 4 -10 2 -15 -3 -11 -5 3 -10 -2 -10 -11 -1 -9 -3 -24
-6 -32 -3 -8 -3 -12 -1 -7 3 4 9 4 15 1 7 -4 6 -9 -2 -14 -9 -5 -9 -9 -1 -14
6 -4 11 -2 11 4 0 6 5 8 11 4 8 -4 7 -9 -2 -15 -7 -4 -10 -11 -6 -15 4 -4 13
1 21 11 7 10 18 15 24 11 18 -11 14 -29 -4 -22 -8 3 -13 2 -10 -3 3 -5 -1 -11
-9 -15 -8 -3 -15 -10 -15 -16 0 -6 5 -8 11 -4 6 3 25 -7 42 -22 17 -16 25 -21
18 -11 -8 9 -9 17 -3 17 17 0 74 -71 68 -85 -3 -8 2 -19 10 -25 8 -7 14 -17
14 -23 0 -5 -9 -2 -20 8 -12 10 -19 24 -16 31 3 7 -5 20 -17 31 l-22 18 19
-22 c11 -13 14 -23 8 -23 -6 0 -19 11 -27 24 -14 21 -72 45 -59 25 3 -5 11 -9
18 -9 21 0 96 -87 96 -111 0 -11 14 -33 30 -47 17 -15 30 -31 30 -36 0 -5 -7
-1 -16 10 -8 10 -12 12 -8 4 4 -8 14 -23 22 -32 19 -23 4 -23 -28 -1 l-25 16
23 -25 c14 -16 30 -24 42 -21 10 3 21 0 24 -6 4 -5 13 -8 21 -4 15 5 71 -24
62 -33 -2 -3 -17 1 -33 7 -16 7 -36 11 -46 10 -9 -1 -19 3 -22 8 -4 6 -13 8
-20 5 -8 -3 -17 0 -21 5 -3 6 -10 9 -15 6 -4 -3 -13 2 -20 10 -7 8 -10 15 -6
15 4 0 -1 11 -10 25 -8 13 -13 28 -10 33 3 5 -3 17 -14 27 -11 10 -20 23 -20
29 0 6 12 -2 25 -17 14 -16 23 -32 20 -37 -3 -4 1 -13 8 -19 18 -14 16 21 -2
43 -7 8 -10 19 -7 24 3 5 -15 31 -41 58 -25 27 -40 41 -33 31 11 -15 10 -17
-11 -13 -13 2 -31 -3 -41 -11 -12 -11 -18 -11 -24 -2 -4 7 -3 10 4 5 6 -3 17
3 25 14 7 11 18 17 23 12 4 -4 3 0 -4 9 -7 9 -10 24 -6 33 3 9 1 16 -4 16 -17
0 -25 -20 -13 -34 9 -10 7 -17 -6 -27 -16 -13 -17 -12 -4 4 12 15 9 21 -11 18
-4 0 -4 7 -1 16 5 12 3 14 -8 8 -10 -7 -9 -1 4 18 16 25 15 32 -6 28 -4 -1 -3
7 3 18 13 26 13 31 -2 27 -7 -1 -10 -1 -5 1 4 3 4 9 1 14 -3 6 -12 5 -22 -3
-15 -11 -15 -11 -5 3 7 9 10 19 6 22 -3 4 -1 7 6 7 7 0 9 5 6 10 -3 6 -2 10 4
10 6 0 8 6 6 13 -3 6 4 27 15 45 l20 33 30 -28 c17 -15 25 -30 19 -32z m-21
-11 c3 -7 0 -10 -7 -6 -20 13 -12 -5 12 -25 15 -12 17 -18 8 -19 -8 0 -23 8
-34 18 -11 9 -17 11 -13 5 4 -7 2 -13 -3 -13 -14 0 -14 3 1 35 12 26 28 29 36
5z m92 -15 c-9 -10 -4 -19 19 -36 38 -28 45 -45 26 -72 -8 -12 -15 -18 -15
-13 0 5 -6 4 -13 -2 -10 -9 -23 -1 -55 32 -23 24 -39 46 -35 50 10 9 54 -35
46 -47 -4 -6 -1 -7 7 -2 9 6 11 4 5 -5 -6 -9 -4 -11 5 -5 8 5 11 4 7 -2 -3 -5
1 -10 9 -10 9 0 1 15 -23 39 -25 26 -32 38 -21 38 9 0 30 -16 47 -35 17 -20
31 -32 31 -27 0 8 -44 51 -90 87 -20 16 -22 16 -11 3 16 -22 -1 -24 -19 -3
-10 12 -7 15 14 21 13 3 29 3 35 0 5 -4 12 -2 16 4 4 6 11 8 16 4 6 -4 6 -11
-1 -19z m945 -185 c-3 -5 -1 -10 6 -10 8 0 8 -4 -1 -15 -9 -11 -15 -12 -20 -5
-5 7 -11 6 -20 -5 -11 -13 -10 -15 6 -9 14 5 12 0 -8 -20 -28 -27 -37 -43 -17
-30 7 4 10 -1 7 -11 -5 -27 -22 -28 -33 -3 -11 23 -16 25 -47 13 -33 -13 -18
11 17 28 45 21 51 21 34 0 -13 -16 -12 -17 4 -4 9 8 15 16 12 19 -3 3 1 12 8
20 8 11 8 14 0 9 -6 -4 -14 -3 -17 2 -4 5 5 8 19 7 14 -2 30 3 36 10 13 16 23
19 14 4z m62 -21 c-9 -6 -15 -14 -12 -20 8 -12 -4 -31 -16 -24 -5 4 -5 13 1
25 5 10 7 20 2 23 -4 2 -2 2 5 1 7 -2 15 1 19 7 3 6 9 7 12 4 4 -4 -1 -11 -11
-16z m-37 -18 c0 -5 -7 -14 -15 -21 -12 -10 -15 -10 -15 2 0 8 3 18 7 21 9 10
23 9 23 -2z m-1028 -16 c2 3 17 -8 31 -25 15 -16 23 -30 18 -30 -6 0 -13 5
-17 12 -5 8 -11 6 -20 -6 -8 -11 -14 -13 -19 -7 -3 6 -1 11 6 11 9 0 9 3 0 14
-12 14 -35 16 -47 3 -4 -4 3 -7 15 -7 12 0 19 -4 16 -10 -4 -6 -11 -7 -17 -4
-7 5 -8 2 -3 -6 5 -8 4 -11 -3 -6 -6 3 -13 2 -16 -3 -3 -5 1 -12 9 -15 9 -3
18 1 22 9 4 13 8 13 21 3 8 -7 18 -12 21 -10 3 2 7 -1 9 -6 3 -11 -23 -10 -34
1 -4 4 -14 1 -23 -7 -9 -7 -27 -16 -39 -19 -23 -5 -23 -5 -6 14 9 10 14 19 9
19 -4 0 -2 7 5 15 10 11 10 18 1 29 -10 11 -7 17 10 30 15 10 27 12 34 6 7 -5
14 -8 17 -5z m1068 -20 c-7 -9 -14 -29 -16 -46 -2 -17 -12 -43 -22 -57 -11
-15 -18 -33 -16 -40 1 -8 0 -8 -3 -1 -4 8 -8 7 -15 -2 -7 -10 -9 -9 -5 7 2 12
1 28 -4 36 -6 11 -3 20 8 29 15 13 16 11 11 -14 -5 -27 -5 -27 11 -10 9 10 20
27 24 38 7 19 6 19 -7 2 -8 -10 -17 -14 -20 -8 -3 5 1 16 9 24 8 9 15 18 15
22 0 13 35 53 38 44 2 -5 -2 -16 -8 -24z m-82 -13 c-8 -10 -8 -13 -1 -9 6 4
14 1 16 -5 3 -7 6 -3 6 9 1 25 21 42 21 18 0 -9 -10 -29 -22 -46 l-22 -29 -11
32 c-11 34 -2 63 17 52 5 -3 4 -13 -4 -22z m288 -5 c4 -4 1 -13 -6 -22 -13
-16 -31 -20 -29 -7 3 20 -2 32 -13 26 -6 -4 -8 -3 -5 3 7 11 43 11 53 0z
m-377 -27 c-22 -14 -34 2 -13 17 13 10 20 10 23 2 2 -6 -3 -15 -10 -19z m-858
-123 c12 -22 12 -22 -10 -3 -11 11 -21 23 -21 28 0 14 19 -1 31 -25z m931 -45
c3 -11 0 -19 -8 -19 -15 0 -19 19 -7 30 9 10 10 9 15 -11z m-67 -59 c-12 -27
-17 -46 -19 -70 0 -11 -4 -19 -9 -16 -4 2 -11 -7 -17 -21 -5 -14 -12 -26 -16
-26 -3 0 -4 7 -1 14 4 11 1 13 -11 9 -14 -6 -15 -4 -4 9 9 11 10 18 2 23 -5 3
-10 1 -10 -4 0 -6 -4 -11 -10 -11 -5 0 -10 7 -10 16 0 9 7 14 18 12 9 -2 22 3
29 12 11 13 12 13 13 -2 0 -10 -5 -18 -11 -18 -5 0 -7 -5 -3 -11 9 -15 19 4
29 51 8 36 24 64 33 56 2 -3 1 -13 -3 -23z m-1032 -88 c-28 -22 -38 -18 -12 5
14 11 18 19 11 20 -7 0 -10 5 -6 11 5 8 10 6 16 -5 7 -13 5 -21 -9 -31z m917
0 c0 -8 -7 -15 -15 -15 -8 0 -15 7 -15 15 0 8 7 15 15 15 8 0 15 -7 15 -15z
m20 -25 c0 -6 -12 -15 -26 -20 -33 -13 -34 -13 -34 6 0 11 6 15 20 11 11 -3
20 -1 20 4 0 5 5 9 10 9 6 0 10 -5 10 -10z m-628 -27 c-1 -4 7 -16 15 -25 18
-20 4 -24 -17 -5 -12 10 -12 9 -2 -4 6 -9 8 -20 4 -24 -4 -5 -1 -5 7 0 9 5 12
4 7 -3 -3 -6 -2 -14 4 -17 8 -5 8 -11 1 -19 -6 -7 -7 -17 -3 -21 4 -5 -1 -5
-10 -2 -10 4 -18 2 -18 -3 0 -6 -6 -10 -12 -10 -7 0 -1 11 14 25 17 15 24 26
17 31 -6 3 -22 -5 -36 -17 -23 -22 -25 -23 -21 -4 1 11 8 23 13 27 6 4 10 11
11 15 7 49 26 91 26 56z m275 -42 c-15 -6 -12 -9 15 -23 28 -13 87 -30 110
-32 3 -1 10 -5 15 -10 5 -5 -1 -7 -14 -3 -13 3 -26 1 -29 -4 -3 -6 -13 -9 -22
-8 -24 2 -63 -12 -57 -20 2 -4 -13 -15 -33 -25 -27 -12 -32 -13 -17 -2 47 35
51 41 32 44 -19 4 -21 11 -9 29 4 7 13 9 21 4 7 -5 10 -14 7 -20 -4 -6 0 -11
9 -11 9 0 13 5 10 10 -3 6 -1 10 6 10 7 0 9 3 5 8 -4 4 -11 7 -14 7 -4 0 -22
6 -40 14 -22 9 -31 19 -28 28 4 8 6 19 6 24 0 6 10 4 22 -2 20 -11 21 -13 5
-18z m303 18 c0 -7 10 -9 26 -5 17 5 23 3 19 -4 -3 -5 -13 -10 -21 -10 -8 0
-13 -4 -9 -9 3 -5 0 -13 -6 -17 -8 -4 -9 -3 -5 4 4 7 2 12 -4 12 -6 0 -8 5 -5
10 3 6 -1 10 -10 10 -9 0 -13 5 -10 10 8 13 25 13 25 -1z m-420 -56 c0 -18
-23 -40 -43 -40 -24 0 -24 0 -6 18 11 11 19 23 19 29 0 5 7 7 15 4 8 -4 15 -8
15 -11z m235 -53 c-3 -5 -1 -10 4 -10 6 0 11 4 11 9 0 5 14 9 30 9 17 -1 29
-2 28 -2 -2 -1 -12 -8 -22 -16 -13 -10 -17 -10 -12 -2 4 6 2 12 -3 12 -6 0
-11 -5 -11 -11 0 -5 -10 -9 -22 -7 -13 2 -22 -2 -21 -7 1 -6 -7 -11 -18 -11
-21 0 -27 16 -6 17 6 0 3 5 -8 10 -17 8 -15 8 8 4 15 -3 27 -1 27 5 0 5 5 10
11 10 5 0 7 -4 4 -10z m-70 -29 c-2 -5 -14 -11 -25 -14 -11 -3 -18 -1 -14 4 3
5 12 9 20 9 9 0 12 5 8 12 -4 7 -3 8 5 4 6 -4 9 -11 6 -15z"/>
<path d="M1310 3564 c0 -10 5 -26 10 -34 8 -11 9 -8 6 14 -6 34 -16 47 -16 20z"/>
<path d="M1333 3263 c-15 -16 -31 -27 -35 -26 -7 3 -2 -36 7 -45 3 -3 5 5 5
17 0 12 4 19 10 16 6 -3 10 1 10 10 0 9 5 13 10 10 6 -3 10 1 10 10 0 9 5 13
10 10 6 -3 10 1 10 9 0 22 -5 20 -37 -11z"/>
<path d="M1274 3207 c2 -21 7 -41 10 -44 9 -10 6 40 -5 62 -7 15 -8 11 -5 -18z"/>
<path d="M1250 3183 c0 -11 7 -40 15 -63 15 -43 11 -74 -7 -49 -7 11 -8 9 -4
-5 4 -10 -3 -34 -15 -56 -17 -31 -19 -41 -9 -56 11 -18 11 -18 6 0 -6 17 28
93 48 107 4 4 3 23 -3 42 -7 20 -14 48 -17 64 -6 34 -14 43 -14 16z"/>
<path d="M1349 3174 c-14 -14 -15 -19 -3 -43 7 -15 15 -36 17 -47 1 -10 9 -28
16 -39 14 -22 12 -16 -14 63 -9 29 -14 56 -11 59 6 6 24 -36 29 -66 2 -9 8
-25 15 -36 12 -19 12 -18 6 5 -4 14 -14 46 -23 73 -15 44 -18 46 -32 31z"/>
<path d="M1313 3153 c0 -18 4 -33 9 -33 10 0 9 18 -2 45 -6 16 -8 14 -7 -12z"/>
<path d="M1416 3150 c4 -19 13 -46 21 -60 l14 -25 -7 25 c-4 14 -13 41 -20 60
l-14 35 6 -35z"/>
<path d="M1234 3132 c2 -19 7 -36 10 -40 10 -10 6 42 -5 58 -7 11 -9 7 -5 -18z"/>
<path d="M1293 3128 c2 -15 6 -30 10 -34 10 -10 8 17 -3 41 -8 17 -9 16 -7 -7z"/>
<path d="M1401 3123 c-1 -12 4 -25 9 -28 12 -7 12 2 0 30 -8 19 -9 19 -9 -2z"/>
<path d="M1215 3111 c2 -14 -5 -41 -17 -62 -20 -35 -20 -40 -5 -76 11 -28 12
-44 5 -57 -7 -12 -6 -27 2 -47 7 -16 15 -28 17 -25 3 2 0 14 -7 25 -13 25 -3
51 12 30 11 -18 -1 35 -18 75 -12 30 -3 72 20 88 6 4 5 19 -2 40 -7 18 -10 22
-7 9z"/>
<path d="M1343 3063 c2 -12 6 -26 10 -29 11 -11 8 19 -3 36 -8 12 -9 10 -7 -7z"/>
<path d="M1320 3035 c0 -11 8 -29 16 -40 15 -19 15 -19 8 10 -8 37 -24 57 -24
30z"/>
<path d="M1302 3005 c2 -12 -2 -19 -10 -17 -7 1 -12 -3 -11 -10 1 -7 1 -20 0
-28 -1 -13 -2 -13 -12 0 -8 12 -9 10 -4 -7 3 -12 1 -24 -5 -28 -5 -3 -10 -1
-10 6 0 7 -3 10 -6 6 -3 -3 6 -31 20 -63 14 -31 26 -60 26 -65 0 -18 -19 -9
-25 12 -4 11 -9 19 -11 17 -4 -5 18 -71 27 -78 16 -13 39 -72 32 -83 -4 -7
-13 -28 -19 -47 l-10 -35 -17 32 c-9 18 -17 40 -17 50 1 13 5 11 16 -9 20 -38
29 -36 9 2 -17 33 -20 64 -5 55 6 -3 7 1 3 10 -5 13 -7 14 -14 3 -7 -11 -11
-10 -19 2 -13 20 -13 4 0 -20 7 -13 7 -21 0 -25 -5 -3 -10 -1 -10 6 0 7 -3 10
-6 7 -3 -4 -1 -15 5 -26 6 -11 7 -22 4 -26 -11 -11 -9 -64 3 -59 6 2 9 16 7
31 -5 26 -4 26 16 -6 12 -18 21 -36 21 -40 0 -4 10 -18 21 -32 l21 -25 -19 34
c-13 25 -15 35 -5 38 6 3 10 9 6 14 -11 19 8 30 23 12 13 -17 13 -16 4 4 -13
27 -14 56 -2 49 5 -4 7 3 4 14 -7 25 5 26 24 3 13 -16 13 -16 4 4 -15 29 -14
56 1 47 7 -4 8 -3 4 4 -13 21 5 34 20 15 13 -16 13 -15 2 10 -10 23 -9 30 2
37 13 8 13 11 1 22 -9 8 -11 9 -7 1 3 -6 2 -14 -3 -18 -12 -7 -54 69 -44 79 4
3 1 6 -5 6 -7 0 -12 -7 -12 -15 0 -8 -4 -15 -10 -15 -5 0 -9 -3 -9 -7 5 -32
-5 -32 -22 0 -22 41 -15 76 7 36 16 -29 18 -19 3 13 -8 18 -7 30 4 52 14 26
16 26 26 9 9 -15 10 -13 5 12 -8 35 -28 62 -22 30z m47 -183 l19 -37 -23 -44
-24 -43 -15 31 c-19 36 -21 65 -4 55 7 -4 8 -3 4 5 -6 9 13 71 21 71 2 0 11
-17 22 -38z"/>
<path d="M1471 3005 c0 -5 6 -21 14 -35 8 -14 14 -20 14 -15 0 6 -6 21 -14 35
-8 14 -14 21 -14 15z"/>
<path d="M1171 2890 c0 -8 6 -28 14 -45 17 -39 18 -21 0 25 -7 19 -14 28 -14
20z"/>
<path d="M1231 2870 c2 -8 0 -25 -5 -37 -5 -15 -2 -30 8 -45 18 -25 21 -17 6
12 -8 14 -7 25 2 40 10 16 10 22 -1 32 -10 11 -12 10 -10 -2z"/>
<path d="M1580 2729 c0 -5 -4 -7 -10 -4 -16 10 -12 -11 5 -25 13 -11 14 -10 8
6 -6 17 -5 18 12 4 17 -14 18 -14 6 8 -13 24 -21 28 -21 11z"/>
<path d="M1513 2698 c1 -7 -4 -12 -10 -10 -7 1 -12 -1 -12 -5 4 -24 -4 -25
-22 -3 l-20 25 12 -25 c7 -14 12 -28 11 -32 -1 -3 5 -9 13 -12 9 -3 12 0 9 8
-6 16 22 40 37 31 8 -6 8 -2 0 14 -13 23 -22 28 -18 9z"/>
<path d="M1419 2635 c5 -11 17 -29 26 -40 9 -11 14 -14 10 -7 -4 7 -2 19 5 27
8 9 8 15 0 20 -6 4 -10 3 -9 -2 4 -24 -4 -25 -22 -3 -14 17 -17 19 -10 5z"/>
<path d="M1563 2615 c1 -5 -4 -9 -10 -7 -7 1 -13 -3 -13 -9 0 -6 -7 -9 -14 -6
-11 4 -13 1 -9 -10 5 -12 2 -15 -10 -10 -15 5 -16 3 -7 -13 5 -10 16 -22 23
-26 9 -6 9 -5 0 8 -15 18 -5 32 13 17 9 -8 11 -6 8 8 -4 12 4 24 24 35 16 10
32 15 36 11 3 -3 6 -2 6 4 0 6 -11 10 -24 9 -13 0 -24 -5 -23 -11z"/>
<path d="M1655 2530 c4 -6 10 -8 15 -5 5 3 20 -7 34 -22 14 -15 26 -24 26 -19
0 5 10 1 23 -10 12 -10 16 -12 10 -4 -16 18 -17 34 -1 24 7 -5 8 -3 4 5 -5 7
-10 10 -13 7 -3 -2 -20 4 -39 15 -37 20 -69 25 -59 9z"/>
<path d="M1889 2324 c-10 -13 -8 -19 13 -41 17 -17 32 -24 43 -19 14 5 15 9 5
21 -7 8 -16 13 -20 10 -4 -2 -16 3 -26 11 -10 9 -14 13 -7 10 14 -7 27 10 14
18 -5 3 -15 -1 -22 -10z"/>
<path d="M1685 2308 c18 -24 44 -43 50 -36 1 2 -14 17 -34 33 -35 30 -35 30
-16 3z"/>
<path d="M1860 2302 c0 -11 27 -42 37 -42 3 0 -2 10 -13 23 -10 12 -20 24 -21
26 -2 2 -3 -1 -3 -7z"/>
<path d="M1868 2173 c0 -10 -1 -27 0 -38 2 -20 2 -20 -13 -1 -8 11 -15 23 -15
26 0 4 -7 7 -14 7 -11 0 -8 -9 10 -29 13 -16 24 -34 24 -39 0 -6 5 -7 10 -4 6
3 14 -2 18 -12 4 -10 13 -19 20 -21 9 -2 7 6 -6 23 -13 17 -19 37 -17 60 2 19
-1 37 -6 40 -5 4 -10 -2 -11 -12z"/>
<path d="M2036 2121 c-3 -4 3 -16 14 -26 11 -10 20 -15 20 -10 0 4 8 1 18 -6
9 -7 4 1 -12 19 -33 36 -33 35 -40 23z"/>
<path d="M2126 2032 c-5 -9 32 -50 40 -44 2 1 5 2 7 1 1 0 10 -2 21 -4 16 -3
15 -1 -5 21 -24 26 -30 29 -26 15 1 -5 -2 -9 -8 -10 -5 -1 -10 3 -10 8 0 15
-12 23 -19 13z"/>
<path d="M1795 1971 c-6 -10 0 -15 17 -12 10 1 58 -59 58 -72 0 -7 -12 1 -27
18 -23 27 -61 46 -47 24 3 -5 9 -7 13 -4 5 2 16 -11 26 -29 11 -20 24 -32 32
-29 7 3 13 0 13 -6 0 -6 5 -11 12 -11 9 0 9 3 0 12 -7 7 -12 19 -12 28 0 9 -9
26 -19 37 -11 12 -18 24 -15 27 2 3 1 4 -3 1 -3 -3 -14 2 -24 11 -11 10 -19
12 -24 5z"/>
<path d="M1551 2093 c16 -27 26 -29 26 -8 0 8 -3 13 -5 10 -3 -3 -12 1 -20 8
-13 11 -14 9 -1 -10z"/>
<path d="M1525 1895 c0 -18 4 -37 9 -42 5 -4 6 -3 2 4 -4 7 -2 21 3 32 8 14 7
22 -2 29 -9 8 -12 3 -12 -23z"/>
<path d="M1930 4338 c3 -3 21 -10 40 -17 19 -6 30 -7 25 -2 -6 5 -23 13 -40
17 -16 4 -28 5 -25 2z"/>
<path d="M1940 4303 c8 -3 27 -12 43 -20 15 -7 27 -11 27 -9 0 8 -58 36 -72
35 -9 0 -8 -2 2 -6z"/>
<path d="M2100 4268 c24 -27 45 -48 47 -48 8 0 0 9 -44 50 l-48 45 45 -47z"/>
<path d="M2090 4235 c85 -94 86 -95 62 -60 -11 17 -44 53 -73 80 -49 46 -49
45 11 -20z"/>
<path d="M1922 4276 c21 -8 50 -21 64 -31 15 -9 23 -12 20 -6 -10 16 -82 51
-103 51 -10 -1 -1 -7 19 -14z"/>
<path d="M2065 4220 c27 -27 51 -50 54 -50 3 0 -17 23 -44 50 -27 28 -51 50
-54 50 -3 0 17 -22 44 -50z"/>
<path d="M2020 4227 c0 -2 15 -16 33 -33 l32 -29 -29 33 c-28 30 -36 37 -36
29z"/>
<path d="M1990 4207 c0 -2 15 -16 33 -33 l32 -29 -29 33 c-28 30 -36 37 -36
29z"/>
<path d="M1875 4183 c17 -8 50 -32 75 -51 25 -20 36 -26 26 -14 -23 27 -105
82 -120 82 -6 -1 3 -8 19 -17z"/>
<path d="M1995 4140 c79 -87 82 -90 57 -55 -11 17 -42 50 -68 75 -43 40 -42
38 11 -20z"/>
<path d="M2197 4173 c6 -16 5 -17 -12 -3 -18 15 -18 14 -1 -12 21 -32 28 -36
19 -11 -5 11 -3 14 6 8 10 -6 11 -3 2 14 -14 25 -23 28 -14 4z"/>
<path d="M1845 4153 c17 -9 48 -30 70 -47 22 -17 34 -23 27 -14 -17 22 -102
78 -116 78 -6 -1 3 -8 19 -17z"/>
<path d="M1895 4060 c27 -27 51 -50 54 -50 3 0 -17 23 -44 50 -27 28 -51 50
-54 50 -3 0 17 -22 44 -50z"/>
<path d="M1512 4045 c-17 -37 -14 -45 4 -12 9 16 14 31 11 33 -2 2 -9 -7 -15
-21z"/>
<path d="M1721 4067 c16 -12 79 -45 79 -42 0 7 -63 45 -74 45 -5 0 -7 -1 -5
-3z"/>
<path d="M1482 4035 c-17 -37 -14 -45 4 -12 9 16 14 31 11 33 -2 2 -9 -7 -15
-21z"/>
<path d="M2152 3975 c18 -35 34 -63 36 -61 4 5 -56 126 -63 126 -3 0 10 -29
27 -65z"/>
<path d="M2177 4005 c9 -19 18 -33 21 -31 4 5 -26 66 -33 66 -3 0 3 -16 12
-35z"/>
<path d="M2122 3955 c12 -24 23 -43 26 -41 4 5 -36 86 -43 86 -3 0 5 -20 17
-45z"/>
<path d="M2271 3995 c0 -5 6 -21 14 -35 8 -14 14 -20 14 -15 0 6 -6 21 -14 35
-8 14 -14 21 -14 15z"/>
<path d="M1660 3983 c8 -3 24 -10 35 -15 20 -9 20 -9 1 6 -11 9 -27 16 -35 15
-14 0 -14 -1 -1 -6z"/>
<path d="M2087 3935 c15 -30 29 -53 31 -51 4 5 -46 106 -53 106 -3 0 7 -25 22
-55z"/>
<path d="M2251 3985 c0 -5 6 -21 14 -35 8 -14 14 -20 14 -15 0 6 -6 21 -14 35
-8 14 -14 21 -14 15z"/>
<path d="M2231 3965 c0 -5 6 -21 14 -35 8 -14 14 -20 14 -15 0 6 -6 21 -14 35
-8 14 -14 21 -14 15z"/>
<path d="M1755 3920 c21 -22 41 -40 44 -40 3 0 -13 18 -34 40 -21 22 -41 40
-44 40 -3 0 13 -18 34 -40z"/>
<path d="M2017 3885 c9 -19 18 -33 21 -31 4 5 -26 66 -33 66 -3 0 3 -16 12
-35z"/>
<path d="M2286 3900 c4 -14 13 -38 20 -55 11 -24 13 -25 8 -5 -4 14 -13 39
-20 55 -11 24 -13 25 -8 5z"/>
<path d="M1947 3815 c15 -30 29 -53 31 -51 4 5 -46 106 -53 106 -3 0 7 -25 22
-55z"/>
<path d="M2272 3858 c3 -7 13 -37 23 -66 9 -29 19 -52 21 -49 5 5 -36 127 -43
127 -3 0 -3 -6 -1 -12z"/>
<path d="M2081 3855 c0 -5 9 -28 20 -50 10 -22 16 -29 13 -15 -7 28 -33 80
-33 65z"/>
<path d="M1570 3843 c8 -3 24 -10 35 -15 20 -9 20 -9 1 6 -11 9 -27 16 -35 15
-14 0 -14 -1 -1 -6z"/>
<path d="M2216 3830 c3 -14 11 -32 16 -40 6 -10 7 -7 2 10 -3 14 -11 32 -16
40 -6 10 -7 7 -2 -10z"/>
<path d="M2265 3790 c15 -51 47 -131 51 -128 4 4 -45 140 -53 148 -3 3 -2 -6
2 -20z"/>
<path d="M2192 3788 c3 -7 13 -37 23 -66 9 -29 19 -52 21 -49 5 5 -36 127 -43
127 -3 0 -3 -6 -1 -12z"/>
<path d="M1640 3728 c24 -27 45 -48 47 -48 8 0 0 9 -44 50 l-48 45 45 -47z"/>
<path d="M1921 3765 c0 -5 6 -21 14 -35 8 -14 14 -20 14 -15 0 6 -6 21 -14 35
-8 14 -14 21 -14 15z"/>
<path d="M2122 3748 c3 -7 13 -37 23 -66 9 -29 19 -52 21 -49 5 5 -36 127 -43
127 -3 0 -3 -6 -1 -12z"/>
<path d="M1520 3733 c8 -3 24 -10 35 -15 20 -9 20 -9 1 6 -11 9 -27 16 -35 15
-14 0 -14 -1 -1 -6z"/>
<path d="M2176 3720 c4 -14 13 -38 20 -55 11 -24 13 -25 8 -5 -4 14 -13 39
-20 55 -11 24 -13 25 -8 5z"/>
<path d="M1615 3670 c21 -22 41 -40 44 -40 3 0 -13 18 -34 40 -21 22 -41 40
-44 40 -3 0 13 -18 34 -40z"/>
<path d="M2006 3680 c4 -14 13 -38 20 -55 11 -24 13 -25 8 -5 -4 14 -13 39
-20 55 -11 24 -13 25 -8 5z"/>
<path d="M1520 3664 c19 -8 55 -34 80 -57 l45 -42 -40 43 c-40 44 -83 72 -107
72 -7 -1 3 -8 22 -16z"/>
<path d="M2340 3676 c0 -11 30 -66 36 -66 2 0 -3 15 -12 33 -19 36 -24 44 -24
33z"/>
<path d="M1861 3665 c0 -5 9 -28 20 -50 10 -22 16 -29 13 -15 -7 28 -33 80
-33 65z"/>
<path d="M2280 3656 c0 -11 40 -86 45 -86 3 0 -4 19 -16 43 -23 45 -29 54 -29
43z"/>
<path d="M1922 3638 c3 -7 13 -37 23 -66 9 -29 19 -52 21 -49 5 5 -36 127 -43
127 -3 0 -3 -6 -1 -12z"/>
<path d="M1725 3610 c9 -16 18 -30 21 -30 2 0 -2 14 -11 30 -9 17 -18 30 -21
30 -2 0 2 -13 11 -30z"/>
<path d="M2210 3626 c0 -11 40 -86 45 -86 3 0 -4 19 -16 43 -23 45 -29 54 -29
43z"/>
<path d="M1460 3618 c3 -3 21 -10 40 -17 19 -6 30 -7 25 -2 -6 5 -23 13 -40
17 -16 4 -28 5 -25 2z"/>
<path d="M1580 3548 c24 -27 45 -48 47 -48 8 0 0 9 -44 50 l-48 45 45 -47z"/>
<path d="M1996 3570 c3 -14 11 -32 16 -40 6 -10 7 -7 2 10 -3 14 -11 32 -16
40 -6 10 -7 7 -2 -10z"/>
<path d="M2140 3576 c0 -11 30 -66 36 -66 2 0 -3 15 -12 33 -19 36 -24 44 -24
33z"/>
<path d="M1751 3565 c0 -5 6 -21 14 -35 8 -14 14 -20 14 -15 0 6 -6 21 -14 35
-8 14 -14 21 -14 15z"/>
<path d="M1856 3550 c3 -14 11 -32 16 -40 6 -10 7 -7 2 10 -3 14 -11 32 -16
40 -6 10 -7 7 -2 -10z"/>
<path d="M2100 3556 c0 -11 30 -66 36 -66 2 0 -3 15 -12 33 -19 36 -24 44 -24
33z"/>
<path d="M2425 3490 c21 -22 41 -40 44 -40 3 0 -13 18 -34 40 -21 22 -41 40
-44 40 -3 0 13 -18 34 -40z"/>
<path d="M1570 3478 c24 -27 45 -48 47 -48 8 0 0 9 -44 50 l-48 45 45 -47z"/>
<path d="M1826 3500 c3 -14 11 -32 16 -40 6 -10 7 -7 2 10 -3 14 -11 32 -16
40 -6 10 -7 7 -2 -10z"/>
<path d="M1926 3490 c3 -14 11 -32 16 -40 6 -10 7 -7 2 10 -3 14 -11 32 -16
40 -6 10 -7 7 -2 -10z"/>
<path d="M2360 3468 c24 -27 45 -48 47 -48 8 0 0 9 -44 50 l-48 45 45 -47z"/>
<path d="M2280 3435 c19 -19 36 -35 39 -35 3 0 -10 16 -29 35 -19 19 -36 35
-39 35 -3 0 10 -16 29 -35z"/>
<path d="M1756 3440 c3 -14 11 -32 16 -40 6 -10 7 -7 2 10 -3 14 -11 32 -16
40 -6 10 -7 7 -2 -10z"/>
<path d="M1677 3405 c9 -19 18 -33 21 -31 4 5 -26 66 -33 66 -3 0 3 -16 12
-35z"/>
<path d="M1901 3425 c0 -5 6 -21 14 -35 8 -14 14 -20 14 -15 0 6 -6 21 -14 35
-8 14 -14 21 -14 15z"/>
<path d="M2165 3370 c21 -22 41 -40 44 -40 3 0 -13 18 -34 40 -21 22 -41 40
-44 40 -3 0 13 -18 34 -40z"/>
<path d="M2390 3395 c0 -7 81 -47 86 -43 2 3 -17 14 -41 26 -25 12 -45 20 -45
17z"/>
<path d="M1481 3387 c2 -2 18 -11 34 -21 l30 -17 -24 20 c-13 12 -28 21 -34
21 -6 0 -8 -1 -6 -3z"/>
<path d="M1826 3370 c3 -14 11 -32 16 -40 6 -10 7 -7 2 10 -3 14 -11 32 -16
40 -6 10 -7 7 -2 -10z"/>
<path d="M1870 3376 c0 -11 30 -66 36 -66 2 0 -3 15 -12 33 -19 36 -24 44 -24
33z"/>
<path d="M2360 3375 c0 -7 61 -37 66 -33 2 3 -12 12 -31 21 -19 9 -35 15 -35
12z"/>
<path d="M1742 3358 c3 -7 13 -37 23 -66 9 -29 19 -52 21 -49 5 5 -36 127 -43
127 -3 0 -3 -6 -1 -12z"/>
<path d="M1716 3320 c3 -14 11 -32 16 -40 6 -10 7 -7 2 10 -3 14 -11 32 -16
40 -6 10 -7 7 -2 -10z"/>
<path d="M2040 3298 c24 -27 45 -48 47 -48 8 0 0 9 -44 50 l-48 45 45 -47z"/>
<path d="M2465 3325 c17 -8 37 -14 45 -14 8 0 -1 7 -20 14 -46 18 -64 17 -25
0z"/>
<path d="M2615 3331 c11 -4 36 -11 55 -15 24 -4 29 -3 15 3 -11 4 -36 11 -55
15 -24 4 -29 3 -15 -3z"/>
<path d="M2406 3315 c17 -7 44 -16 60 -20 25 -4 24 -3 -6 8 -19 8 -46 17 -60
20 -19 5 -17 3 6 -8z"/>
<path d="M2591 3316 c7 -7 171 -47 176 -43 2 2 -35 14 -81 26 -87 21 -103 24
-95 17z"/>
<path d="M1480 3303 c8 -3 24 -10 35 -15 20 -9 20 -9 1 6 -11 9 -27 16 -35 15
-14 0 -14 -1 -1 -6z"/>
<path d="M1657 3265 c9 -19 18 -33 21 -31 4 5 -26 66 -33 66 -3 0 3 -16 12
-35z"/>
<path d="M1696 3270 c3 -14 11 -32 16 -40 6 -10 7 -7 2 10 -3 14 -11 32 -16
40 -6 10 -7 7 -2 -10z"/>
<path d="M2326 3275 c17 -7 44 -16 60 -20 25 -4 24 -3 -6 8 -19 8 -46 17 -60
20 -19 5 -17 3 6 -8z"/>
<path d="M2154 3265 c22 -17 120 -55 139 -54 7 0 -11 9 -39 18 -27 10 -66 26
-85 35 -27 14 -30 14 -15 1z"/>
<path d="M2835 3250 c11 -5 27 -9 35 -9 9 0 8 4 -5 9 -11 5 -27 9 -35 9 -9 0
-8 -4 5 -9z"/>
<path d="M2915 3250 c11 -5 27 -9 35 -9 9 0 8 4 -5 9 -11 5 -27 9 -35 9 -9 0
-8 -4 5 -9z"/>
<path d="M2100 3245 c0 -7 61 -37 66 -33 2 3 -12 12 -31 21 -19 9 -35 15 -35
12z"/>
<path d="M2315 3240 c11 -5 27 -9 35 -9 9 0 8 4 -5 9 -11 5 -27 9 -35 9 -9 0
-8 -4 5 -9z"/>
<path d="M3211 3236 c-21 -12 -21 -14 -6 -20 10 -3 20 -4 23 -1 3 3 -1 5 -9 5
-8 1 -3 7 11 15 14 8 21 14 15 14 -5 0 -21 -6 -34 -13z"/>
<path d="M2605 3230 c11 -5 27 -9 35 -9 9 0 8 4 -5 9 -11 5 -27 9 -35 9 -9 0
-8 -4 5 -9z"/>
<path d="M2715 3230 c11 -5 27 -9 35 -9 9 0 8 4 -5 9 -11 5 -27 9 -35 9 -9 0
-8 -4 5 -9z"/>
<path d="M2995 3226 c17 -7 41 -16 55 -20 20 -5 19 -3 -5 8 -16 7 -41 16 -55
20 -20 5 -19 3 5 -8z"/>
<path d="M2879 3209 c30 -10 56 -17 58 -15 5 5 -86 36 -101 35 -6 0 13 -9 43
-20z"/>
<path d="M3080 3222 c8 -5 26 -13 40 -16 17 -5 20 -4 10 2 -8 5 -26 13 -40 16
-17 5 -20 4 -10 -2z"/>
<path d="M1910 3207 c0 -2 15 -16 33 -33 l32 -29 -29 33 c-28 30 -36 37 -36
29z"/>
<path d="M2650 3185 c19 -7 42 -13 50 -13 8 0 -1 6 -20 13 -19 7 -42 13 -50
13 -8 0 1 -6 20 -13z"/>
<path d="M2779 3179 c30 -10 56 -17 58 -15 5 5 -86 36 -101 35 -6 0 13 -9 43
-20z"/>
<path d="M3230 3185 c14 -8 30 -14 35 -14 6 0 -1 6 -15 14 -14 8 -29 14 -35
14 -5 0 1 -6 15 -14z"/>
<path d="M2136 3175 c17 -7 44 -16 60 -20 25 -4 24 -3 -6 8 -19 8 -46 17 -60
20 -19 5 -17 3 6 -8z"/>
<path d="M1905 3140 c21 -22 41 -40 44 -40 3 0 -13 18 -34 40 -21 22 -41 40
-44 40 -3 0 13 -18 34 -40z"/>
<path d="M2030 3175 c0 -7 61 -37 66 -33 2 3 -12 12 -31 21 -19 9 -35 15 -35
12z"/>
<path d="M3150 3165 c14 -8 30 -14 35 -14 6 0 -1 6 -15 14 -14 8 -29 14 -35
14 -5 0 1 -6 15 -14z"/>
<path d="M3340 3160 c19 -11 40 -19 45 -19 6 0 -6 8 -25 19 -19 11 -39 19 -45
19 -5 0 6 -8 25 -19z"/>
<path d="M2485 3160 c11 -5 27 -9 35 -9 9 0 8 4 -5 9 -11 5 -27 9 -35 9 -9 0
-8 -4 5 -9z"/>
<path d="M2664 3144 c38 -13 71 -22 73 -20 5 5 -116 46 -131 45 -6 0 20 -11
58 -25z"/>
<path d="M3100 3155 c14 -8 30 -14 35 -14 6 0 -1 6 -15 14 -14 8 -29 14 -35
14 -5 0 1 -6 15 -14z"/>
<path d="M1605 3125 c40 -56 51 -66 29 -27 -10 18 -28 41 -38 50 -12 10 -8 0
9 -23z"/>
<path d="M2760 3152 c8 -5 26 -13 40 -16 17 -5 20 -4 10 2 -8 5 -26 13 -40 16
-17 5 -20 4 -10 -2z"/>
<path d="M3241 3156 c10 -9 149 -76 149 -71 0 5 -136 75 -146 75 -4 0 -5 -2
-3 -4z"/>
<path d="M3301 3156 c10 -9 109 -56 109 -51 0 5 -95 55 -106 55 -4 0 -5 -2 -3
-4z"/>
<path d="M1994 3135 c22 -17 120 -55 139 -54 7 0 -11 9 -39 18 -27 10 -66 26
-85 35 -27 14 -30 14 -15 1z"/>
<path d="M2619 3119 c47 -16 86 -27 88 -25 5 5 -147 56 -162 55 -6 0 28 -14
74 -30z"/>
<path d="M3090 3125 c25 -13 50 -24 55 -24 6 0 -10 11 -35 24 -25 13 -49 24
-55 24 -5 0 10 -11 35 -24z"/>
<path d="M3585 3133 c-15 -33 -13 -43 7 -54 16 -9 19 -8 13 2 -6 9 -3 11 9 6
9 -4 14 -3 11 2 -3 5 -1 12 5 16 9 6 14 -8 11 -28 -1 -4 7 -4 16 1 21 11 46 5
37 -9 -3 -5 -10 -9 -15 -9 -6 0 -7 5 -3 12 4 7 3 8 -5 4 -6 -4 -8 -12 -5 -18
5 -7 1 -9 -9 -5 -24 9 -21 0 4 -14 17 -9 20 -8 14 2 -6 9 -3 11 9 6 9 -4 14
-3 11 2 -3 5 -1 12 5 16 19 12 10 24 -29 45 -33 16 -40 17 -45 5 -3 -8 -11
-15 -18 -15 -9 0 -9 3 0 12 7 7 12 17 12 23 0 5 -5 2 -11 -7 -5 -10 -15 -18
-21 -18 -7 0 -6 6 2 15 7 9 11 18 8 21 -3 3 -9 -3 -13 -13z"/>
<path d="M1716 3120 c3 -14 11 -32 16 -40 6 -10 7 -7 2 10 -3 14 -11 32 -16
40 -6 10 -7 7 -2 -10z"/>
<path d="M3010 3125 c14 -8 30 -14 35 -14 6 0 -1 6 -15 14 -14 8 -29 14 -35
14 -5 0 1 -6 15 -14z"/>
<path d="M2155 3120 c11 -5 27 -9 35 -9 9 0 8 4 -5 9 -11 5 -27 9 -35 9 -9 0
-8 -4 5 -9z"/>
<path d="M2485 3120 c11 -5 27 -9 35 -9 9 0 8 4 -5 9 -11 5 -27 9 -35 9 -9 0
-8 -4 5 -9z"/>
<path d="M3440 3115 c0 -2 18 -14 40 -25 22 -11 40 -18 40 -15 0 2 -18 14 -40
25 -22 11 -40 18 -40 15z"/>
<path d="M1661 3105 c0 -5 6 -21 14 -35 8 -14 14 -20 14 -15 0 6 -6 21 -14 35
-8 14 -14 21 -14 15z"/>
<path d="M1696 3090 c4 -14 13 -38 20 -55 11 -24 13 -25 8 -5 -4 14 -13 39
-20 55 -11 24 -13 25 -8 5z"/>
<path d="M2405 3100 c11 -5 27 -9 35 -9 9 0 8 4 -5 9 -11 5 -27 9 -35 9 -9 0
-8 -4 5 -9z"/>
<path d="M2971 3106 c10 -9 149 -76 149 -71 0 5 -136 75 -146 75 -4 0 -5 -2
-3 -4z"/>
<path d="M2295 3084 c28 -7 55 -13 60 -13 17 2 -69 27 -90 27 -11 0 3 -6 30
-14z"/>
<path d="M2901 3096 c10 -9 169 -86 169 -81 0 5 -156 85 -166 85 -4 0 -5 -2
-3 -4z"/>
<path d="M2509 3069 c30 -10 56 -17 58 -15 5 5 -86 36 -101 35 -6 0 13 -9 43
-20z"/>
<path d="M2610 3082 c8 -5 26 -13 40 -16 17 -5 20 -4 10 2 -8 5 -26 13 -40 16
-17 5 -20 4 -10 -2z"/>
<path d="M3180 3086 c0 -3 14 -12 30 -21 17 -9 30 -13 30 -11 0 3 -13 12 -30
21 -16 9 -30 13 -30 11z"/>
<path d="M1850 3045 c19 -19 36 -35 39 -35 3 0 -10 16 -29 35 -19 19 -36 35
-39 35 -3 0 10 -16 29 -35z"/>
<path d="M3460 3076 c0 -3 14 -12 30 -21 17 -9 30 -13 30 -11 0 3 -13 12 -30
21 -16 9 -30 13 -30 11z"/>
<path d="M3719 3073 c0 -5 -2 -16 -4 -26 -2 -10 6 -22 17 -28 12 -6 18 -7 14
-1 -3 5 1 15 10 22 13 12 14 10 10 -13 -2 -15 0 -30 6 -33 6 -4 8 -2 5 3 -4 6
1 17 10 24 15 12 16 12 10 -5 -7 -17 -6 -17 10 -5 15 12 16 12 11 -3 -8 -21 2
-31 18 -17 10 8 12 6 11 -10 -1 -13 -6 -20 -14 -17 -21 9 -15 -1 15 -20 20
-13 24 -14 14 -2 -10 13 -9 18 5 29 15 12 16 12 11 -3 -9 -22 2 -30 20 -15 13
10 15 9 10 -5 -9 -22 2 -30 20 -15 13 10 15 9 9 -5 -3 -10 -2 -20 4 -23 5 -4
7 -10 4 -15 -3 -4 3 -14 12 -21 15 -12 16 -12 8 1 -13 21 -15 39 -4 46 5 3 10
0 10 -5 1 -6 2 -15 3 -20 0 -5 5 -13 10 -18 5 -4 6 -3 2 4 -3 6 -2 14 4 18 9
5 14 -7 12 -27 -1 -3 6 -12 15 -20 10 -8 14 -8 10 -1 -4 6 -3 14 3 18 5 3 11
1 11 -4 1 -6 2 -15 3 -20 0 -6 7 -16 15 -23 9 -8 11 -8 7 -1 -3 6 -2 14 4 18
9 5 14 -7 12 -26 -1 -4 9 -15 21 -25 13 -12 17 -13 10 -3 -9 11 -9 19 -2 26 8
8 8 13 0 17 -6 4 -11 4 -11 0 0 -3 -9 4 -20 17 -10 13 -19 20 -20 14 0 -5 -7
1 -16 13 -8 12 -19 20 -24 17 -4 -3 -11 2 -14 11 -3 8 -10 13 -15 10 -5 -3
-12 1 -15 10 -3 8 -10 13 -15 10 -5 -3 -12 1 -15 10 -3 8 -10 13 -15 10 -5 -3
-12 1 -15 10 -3 8 -10 13 -15 10 -5 -3 -12 1 -15 10 -3 8 -10 13 -15 10 -5 -3
-12 1 -15 10 -4 9 -9 14 -12 11 -3 -3 -14 3 -25 14 -11 11 -24 17 -29 14 -6
-4 -10 -2 -10 4 0 12 -60 45 -61 34z"/>
<path d="M2045 3055 c17 -8 37 -14 45 -14 8 0 -1 7 -20 14 -46 18 -64 17 -25
0z"/>
<path d="M3140 3066 c0 -3 14 -12 30 -21 17 -9 30 -13 30 -11 0 3 -13 12 -30
21 -16 9 -30 13 -30 11z"/>
<path d="M1740 3056 c0 -11 30 -66 36 -66 2 0 -3 15 -12 33 -19 36 -24 44 -24
33z"/>
<path d="M2700 3045 c14 -8 30 -14 35 -14 6 0 -1 6 -15 14 -14 8 -29 14 -35
14 -5 0 1 -6 15 -14z"/>
<path d="M2791 3056 c10 -9 149 -76 149 -71 0 5 -136 75 -146 75 -4 0 -5 -2
-3 -4z"/>
<path d="M2891 3056 c10 -9 69 -36 69 -32 0 6 -55 36 -66 36 -4 0 -5 -2 -3 -4z"/>
<path d="M2470 3035 c46 -18 64 -17 25 0 -16 8 -37 14 -45 14 -8 0 1 -7 20
-14z"/>
<path d="M2325 3030 c11 -5 27 -9 35 -9 9 0 8 4 -5 9 -11 5 -27 9 -35 9 -9 0
-8 -4 5 -9z"/>
<path d="M1671 3015 c0 -5 6 -21 14 -35 8 -14 14 -20 14 -15 0 6 -6 21 -14 35
-8 14 -14 21 -14 15z"/>
<path d="M2410 3005 c46 -18 64 -17 25 0 -16 8 -37 14 -45 14 -8 0 1 -7 20
-14z"/>
<path d="M2771 3016 c10 -9 69 -36 69 -32 0 6 -55 36 -66 36 -4 0 -5 -2 -3 -4z"/>
<path d="M2580 2995 c14 -8 30 -14 35 -14 6 0 -1 6 -15 14 -14 8 -29 14 -35
14 -5 0 1 -6 15 -14z"/>
<path d="M2681 3006 c10 -9 149 -76 149 -71 0 5 -136 75 -146 75 -4 0 -5 -2
-3 -4z"/>
<path d="M1730 2996 c0 -11 40 -86 45 -86 3 0 -4 19 -16 43 -23 45 -29 54 -29
43z"/>
<path d="M2374 2964 c38 -13 71 -22 73 -20 5 5 -116 46 -131 45 -6 0 20 -11
58 -25z"/>
<path d="M2631 2976 c10 -9 149 -76 149 -71 0 5 -136 75 -146 75 -4 0 -5 -2
-3 -4z"/>
<path d="M2570 2945 c14 -8 30 -14 35 -14 6 0 -1 6 -15 14 -14 8 -29 14 -35
14 -5 0 1 -6 15 -14z"/>
<path d="M2275 2940 c11 -5 27 -9 35 -9 9 0 8 4 -5 9 -11 5 -27 9 -35 9 -9 0
-8 -4 5 -9z"/>
<path d="M2530 2905 c14 -8 30 -14 35 -14 6 0 -1 6 -15 14 -14 8 -29 14 -35
14 -5 0 1 -6 15 -14z"/>
<path d="M1780 2897 c0 -2 15 -16 33 -33 l32 -29 -29 33 c-28 30 -36 37 -36
29z"/>
<path d="M2025 2890 c11 -5 29 -8 40 -8 16 0 15 2 -5 8 -34 11 -60 11 -35 0z"/>
<path d="M2304 2874 c38 -13 71 -22 73 -20 5 5 -116 46 -131 45 -6 0 20 -11
58 -25z"/>
<path d="M1935 2855 c17 -8 37 -14 45 -14 8 0 -1 7 -20 14 -46 18 -64 17 -25
0z"/>
<path d="M2491 2866 c10 -9 149 -76 149 -71 0 5 -136 75 -146 75 -4 0 -5 -2
-3 -4z"/>
<path d="M2185 2850 c11 -5 27 -9 35 -9 9 0 8 4 -5 9 -11 5 -27 9 -35 9 -9 0
-8 -4 5 -9z"/>
<path d="M2470 2810 c19 -11 40 -19 45 -19 6 0 -6 8 -25 19 -19 11 -39 19 -45
19 -5 0 6 -8 25 -19z"/>
<path d="M3870 2745 c35 -36 67 -65 69 -65 3 0 -24 29 -59 65 -35 36 -67 65
-69 65 -3 0 24 -29 59 -65z"/>
<path d="M3985 2740 c38 -38 72 -70 74 -70 3 0 -26 32 -64 70 -38 39 -72 70
-74 70 -3 0 26 -31 64 -70z"/>
<path d="M4010 2807 c0 -2 15 -16 33 -33 l32 -29 -29 33 c-28 30 -36 37 -36
29z"/>
<path d="M4126 2801 c-4 -5 -2 -12 4 -16 6 -4 8 -10 5 -14 -2 -5 4 -16 15 -26
11 -10 20 -16 21 -14 0 2 2 12 4 21 4 20 -40 64 -49 49z m41 -46 c0 -11 -4
-12 -14 -3 -7 6 -11 13 -8 16 3 3 -1 12 -7 21 -10 12 -7 12 8 -2 11 -9 21 -24
21 -32z"/>
<path d="M2175 2790 c11 -5 27 -9 35 -9 9 0 8 4 -5 9 -11 5 -27 9 -35 9 -9 0
-8 -4 5 -9z"/>
<path d="M3480 2797 c0 -2 15 -16 33 -33 l32 -29 -29 33 c-28 30 -36 37 -36
29z"/>
<path d="M3930 2745 c30 -30 57 -55 59 -55 3 0 -19 25 -49 55 -30 30 -57 55
-59 55 -3 0 19 -25 49 -55z"/>
<path d="M4035 2740 c33 -33 62 -60 64 -60 3 0 -21 27 -54 60 -33 33 -62 60
-64 60 -3 0 21 -27 54 -60z"/>
<path d="M4125 2730 c38 -38 72 -70 74 -70 3 0 -26 32 -64 70 -38 39 -72 70
-74 70 -3 0 26 -31 64 -70z"/>
<path d="M3680 2748 c41 -45 50 -53 50 -45 0 2 -21 23 -47 47 l-48 45 45 -47z"/>
<path d="M2550 2776 c0 -3 14 -12 30 -21 17 -9 30 -13 30 -11 0 3 -13 12 -30
21 -16 9 -30 13 -30 11z"/>
<path d="M2431 2766 c10 -9 129 -66 129 -61 0 5 -116 65 -126 65 -4 0 -5 -2
-3 -4z"/>
<path d="M3410 2718 c41 -45 50 -53 50 -45 0 2 -21 23 -47 47 l-48 45 45 -47z"/>
<path d="M3450 2757 c0 -2 15 -16 33 -33 l32 -29 -29 33 c-28 30 -36 37 -36
29z"/>
<path d="M3600 2757 c0 -2 15 -16 33 -33 l32 -29 -29 33 c-28 30 -36 37 -36
29z"/>
<path d="M3840 2715 c19 -19 36 -35 39 -35 3 0 -10 16 -29 35 -19 19 -36 35
-39 35 -3 0 10 -16 29 -35z"/>
<path d="M2155 2730 c11 -5 27 -9 35 -9 9 0 8 4 -5 9 -11 5 -27 9 -35 9 -9 0
-8 -4 5 -9z"/>
<path d="M3345 2700 c21 -22 41 -40 44 -40 3 0 -13 18 -34 40 -21 22 -41 40
-44 40 -3 0 13 -18 34 -40z"/>
<path d="M2390 2715 c14 -8 30 -14 35 -14 6 0 -1 6 -15 14 -14 8 -29 14 -35
14 -5 0 1 -6 15 -14z"/>
<path d="M1965 2710 c11 -5 27 -9 35 -9 9 0 8 4 -5 9 -11 5 -27 9 -35 9 -9 0
-8 -4 5 -9z"/>
<path d="M3560 2717 c0 -2 15 -16 33 -33 l32 -29 -29 33 c-28 30 -36 37 -36
29z"/>
<path d="M4244 2673 c16 -18 32 -31 34 -28 3 3 12 -1 21 -7 10 -8 9 -4 -3 10
-11 12 -22 20 -24 17 -3 -3 -17 5 -31 17 -21 19 -21 17 3 -9z"/>
<path d="M2105 2674 c28 -7 55 -13 60 -13 17 2 -69 27 -90 27 -11 0 3 -6 30
-14z"/>
<path d="M2370 2655 c14 -8 30 -14 35 -14 6 0 -1 6 -15 14 -14 8 -29 14 -35
14 -5 0 1 -6 15 -14z"/>
<path d="M2500 2666 c0 -3 14 -12 30 -21 17 -9 30 -13 30 -11 0 3 -13 12 -30
21 -16 9 -30 13 -30 11z"/>
<path d="M3090 2615 c30 -30 57 -55 59 -55 3 0 -19 25 -49 55 -30 30 -57 55
-59 55 -3 0 19 -25 49 -55z"/>
<path d="M2229 2639 c30 -10 56 -17 58 -15 5 5 -86 36 -101 35 -6 0 13 -9 43
-20z"/>
<path d="M1955 2640 c11 -5 27 -9 35 -9 9 0 8 4 -5 9 -11 5 -27 9 -35 9 -9 0
-8 -4 5 -9z"/>
<path d="M2970 2647 c0 -2 15 -16 33 -33 l32 -29 -29 33 c-28 30 -36 37 -36
29z"/>
<path d="M2460 2616 c0 -3 14 -12 30 -21 17 -9 30 -13 30 -11 0 3 -13 12 -30
21 -16 9 -30 13 -30 11z"/>
<path d="M3937 2575 c9 -19 18 -33 21 -31 4 5 -26 66 -33 66 -3 0 3 -16 12
-35z"/>
<path d="M3877 2565 c9 -19 18 -33 21 -31 4 5 -26 66 -33 66 -3 0 3 -16 12
-35z"/>
<path d="M4122 2555 c12 -24 23 -43 26 -41 4 5 -36 86 -43 86 -3 0 5 -20 17
-45z"/>
<path d="M4177 2545 c15 -30 29 -53 31 -51 4 5 -46 106 -53 106 -3 0 7 -25 22
-55z"/>
<path d="M2219 2569 c30 -10 56 -17 58 -15 5 5 -86 36 -101 35 -6 0 13 -9 43
-20z"/>
<path d="M2371 2586 c10 -9 109 -56 109 -51 0 5 -95 55 -106 55 -4 0 -5 -2 -3
-4z"/>
<path d="M3527 2555 c9 -19 18 -33 21 -31 4 5 -26 66 -33 66 -3 0 3 -16 12
-35z"/>
<path d="M4067 2555 c9 -19 18 -33 21 -31 4 5 -26 66 -33 66 -3 0 3 -16 12
-35z"/>
<path d="M3457 2545 c9 -19 18 -33 21 -31 4 5 -26 66 -33 66 -3 0 3 -16 12
-35z"/>
<path d="M3387 2535 c9 -19 18 -33 21 -31 4 5 -26 66 -33 66 -3 0 3 -16 12
-35z"/>
<path d="M2930 2518 c41 -45 50 -53 50 -45 0 2 -21 23 -47 47 l-48 45 45 -47z"/>
<path d="M4011 2555 c0 -5 9 -28 20 -50 10 -22 16 -29 13 -15 -7 28 -33 80
-33 65z"/>
<path d="M4347 2515 c9 -19 18 -33 21 -31 4 5 -26 66 -33 66 -3 0 3 -16 12
-35z"/>
<path d="M2090 2530 c34 -11 60 -11 35 0 -11 5 -29 8 -40 8 -16 0 -15 -2 5 -8z"/>
<path d="M4377 2505 c9 -19 18 -33 21 -31 4 5 -26 66 -33 66 -3 0 3 -16 12
-35z"/>
<path d="M1880 2525 c0 -7 61 -37 66 -33 2 3 -12 12 -31 21 -19 9 -35 15 -35
12z"/>
<path d="M2341 2526 c10 -9 129 -66 129 -61 0 5 -116 65 -126 65 -4 0 -5 -2
-3 -4z"/>
<path d="M2880 2475 c30 -30 57 -55 59 -55 3 0 -19 25 -49 55 -30 30 -57 55
-59 55 -3 0 19 -25 49 -55z"/>
<path d="M3257 2495 c9 -19 18 -33 21 -31 4 5 -26 66 -33 66 -3 0 3 -16 12
-35z"/>
<path d="M4092 2505 c0 -5 6 -26 13 -45 7 -19 14 -28 14 -20 0 8 -6 29 -14 45
-7 17 -13 26 -13 20z"/>
<path d="M1975 2480 c11 -5 27 -9 35 -9 9 0 8 4 -5 9 -11 5 -27 9 -35 9 -9 0
-8 -4 5 -9z"/>
<path d="M2260 2482 c8 -5 26 -13 40 -16 17 -5 20 -4 10 2 -8 5 -26 13 -40 16
-17 5 -20 4 -10 -2z"/>
<path d="M3412 2485 c0 -5 6 -26 13 -45 7 -19 14 -28 14 -20 0 8 -6 29 -14 45
-7 17 -13 26 -13 20z"/>
<path d="M3342 2475 c0 -5 6 -26 13 -45 7 -19 14 -28 14 -20 0 8 -6 29 -14 45
-7 17 -13 26 -13 20z"/>
<path d="M4402 2455 c0 -5 6 -26 13 -45 7 -19 14 -28 14 -20 0 8 -6 29 -14 45
-7 17 -13 26 -13 20z"/>
<path d="M2135 2440 c11 -5 27 -9 35 -9 9 0 8 4 -5 9 -11 5 -27 9 -35 9 -9 0
-8 -4 5 -9z"/>
<path d="M2351 2446 c10 -9 89 -46 89 -41 0 5 -75 45 -86 45 -4 0 -5 -2 -3 -4z"/>
<path d="M4221 2440 c0 -8 4 -24 9 -35 5 -13 9 -14 9 -5 0 8 -4 24 -9 35 -5
13 -9 14 -9 5z"/>
<path d="M1905 2429 c6 -9 94 -43 99 -38 2 2 -20 13 -50 25 -29 12 -51 18 -49
13z"/>
<path d="M2220 2415 c46 -18 64 -17 25 0 -16 8 -37 14 -45 14 -8 0 1 -7 20
-14z"/>
<path d="M2810 2378 c24 -27 45 -48 47 -48 8 0 0 9 -44 50 l-48 45 45 -47z"/>
<path d="M3152 2415 c0 -5 6 -26 13 -45 7 -19 14 -28 14 -20 0 8 -6 29 -14 45
-7 17 -13 26 -13 20z"/>
<path d="M4322 2410 c0 -8 4 -26 8 -40 6 -20 8 -21 8 -5 0 11 -3 29 -8 40 -5
12 -8 14 -8 5z"/>
<path d="M4391 2410 c0 -8 4 -24 9 -35 5 -13 9 -14 9 -5 0 8 -4 24 -9 35 -5
13 -9 14 -9 5z"/>
<path d="M3091 2400 c0 -3 8 -32 19 -65 12 -33 18 -46 16 -29 -5 29 -33 106
-35 94z"/>
<path d="M2350 2365 c14 -8 30 -14 35 -14 6 0 -1 6 -15 14 -14 8 -29 14 -35
14 -5 0 1 -6 15 -14z"/>
<path d="M3042 2355 c0 -5 6 -26 13 -45 7 -19 14 -28 14 -20 0 8 -6 29 -14 45
-7 17 -13 26 -13 20z"/>
<path d="M2244 2324 c38 -13 71 -22 73 -20 5 5 -116 46 -131 45 -6 0 20 -11
58 -25z"/>
<path d="M2420 2336 c0 -3 14 -12 30 -21 17 -9 30 -13 30 -11 0 3 -13 12 -30
21 -16 9 -30 13 -30 11z"/>
<path d="M2992 2325 c0 -5 6 -26 13 -45 7 -19 14 -28 14 -20 0 8 -6 29 -14 45
-7 17 -13 26 -13 20z"/>
<path d="M3663 2295 c0 -22 2 -30 4 -17 2 12 2 30 0 40 -3 9 -5 -1 -4 -23z"/>
<path d="M1995 2310 c11 -5 27 -9 35 -9 9 0 8 4 -5 9 -11 5 -27 9 -35 9 -9 0
-8 -4 5 -9z"/>
<path d="M3523 2285 c0 -22 2 -30 4 -17 2 12 2 30 0 40 -3 9 -5 -1 -4 -23z"/>
<path d="M2755 2260 c27 -27 51 -50 54 -50 3 0 -17 23 -44 50 -27 28 -51 50
-54 50 -3 0 17 -22 44 -50z"/>
<path d="M3453 2275 c0 -22 2 -30 4 -17 2 12 2 30 0 40 -3 9 -5 -1 -4 -23z"/>
<path d="M2351 2286 c10 -9 129 -66 129 -61 0 5 -116 65 -126 65 -4 0 -5 -2
-3 -4z"/>
<path d="M2903 2241 c12 -27 23 -45 25 -41 3 9 -35 90 -43 90 -2 0 6 -22 18
-49z"/>
<path d="M2240 2245 c46 -18 64 -17 25 0 -16 8 -37 14 -45 14 -8 0 1 -7 20
-14z"/>
<path d="M2745 2190 c21 -22 41 -40 44 -40 3 0 -13 18 -34 40 -21 22 -41 40
-44 40 -3 0 13 -18 34 -40z"/>
<path d="M2351 2206 c10 -9 129 -66 129 -61 0 5 -116 65 -126 65 -4 0 -5 -2
-3 -4z"/>
<path d="M2195 2180 c11 -5 27 -9 35 -9 9 0 8 4 -5 9 -11 5 -27 9 -35 9 -9 0
-8 -4 5 -9z"/>
<path d="M2881 2180 c0 -3 6 -25 13 -50 8 -25 15 -36 15 -25 0 17 -26 88 -28
75z"/>
<path d="M2330 2135 c14 -8 30 -14 35 -14 6 0 -1 6 -15 14 -14 8 -29 14 -35
14 -5 0 1 -6 15 -14z"/>
<path d="M2710 2147 c0 -2 15 -16 33 -33 l32 -29 -29 33 c-28 30 -36 37 -36
29z"/>
<path d="M2260 2085 c46 -18 64 -17 25 0 -16 8 -37 14 -45 14 -8 0 1 -7 20
-14z"/>
<path d="M3226 2069 c-8 -42 0 -50 9 -9 4 17 5 34 2 36 -2 3 -7 -10 -11 -27z"/>
<path d="M3683 2028 c-12 -35 -20 -64 -18 -66 5 -5 46 109 43 119 -2 5 -13
-19 -25 -53z"/>
<path d="M3762 2043 c-15 -48 -8 -55 8 -8 7 20 10 38 8 41 -3 2 -10 -13 -16
-33z"/>
<path d="M4093 1987 c-12 -39 -20 -73 -18 -75 5 -5 47 127 43 137 -2 6 -13
-22 -25 -62z"/>
<path d="M4027 1988 c-9 -29 -15 -54 -13 -56 2 -2 12 20 21 48 9 28 15 53 13
55 -2 3 -12 -19 -21 -47z"/>
<path d="M3056 2004 c-4 -14 -5 -28 -3 -31 3 -2 8 8 11 23 4 14 5 28 3 31 -3
2 -8 -8 -11 -23z"/>
<path d="M2270 2012 c8 -5 26 -13 40 -16 17 -5 20 -4 10 2 -8 5 -26 13 -40 16
-17 5 -20 4 -10 -2z"/>
<path d="M3452 1985 c-17 -37 -14 -45 4 -12 9 16 14 31 11 33 -2 2 -9 -7 -15
-21z"/>
<path d="M4147 1958 c-9 -29 -15 -54 -13 -56 2 -2 12 20 21 48 9 28 15 53 13
55 -2 3 -12 -19 -21 -47z"/>
<path d="M4216 1984 c-4 -14 -5 -28 -3 -31 3 -2 8 8 11 23 4 14 5 28 3 31 -3
2 -8 -8 -11 -23z"/>
<path d="M1902 1989 c2 -6 7 -10 12 -9 4 1 22 -11 39 -27 30 -26 30 -26 -2 10
-34 36 -56 48 -49 26z"/>
<path d="M4316 1969 c-8 -42 0 -50 9 -9 4 17 5 34 2 36 -2 3 -7 -10 -11 -27z"/>
<path d="M2341 1986 c10 -9 129 -66 129 -61 0 5 -116 65 -126 65 -4 0 -5 -2
-3 -4z"/>
<path d="M3802 1955 c-17 -37 -14 -45 4 -12 9 16 14 31 11 33 -2 2 -9 -7 -15
-21z"/>
<path d="M4356 1949 c-8 -42 0 -50 9 -9 4 17 5 34 2 36 -2 3 -7 -10 -11 -27z"/>
<path d="M2807 1935 c9 -19 18 -33 21 -31 4 5 -26 66 -33 66 -3 0 3 -16 12
-35z"/>
<path d="M3172 1925 c-12 -25 -20 -45 -17 -45 7 0 47 81 43 86 -3 2 -14 -17
-26 -41z"/>
<path d="M3567 1925 c-9 -19 -15 -35 -12 -35 7 0 37 61 33 66 -3 2 -12 -12
-21 -31z"/>
<path d="M4252 1923 c-15 -48 -8 -55 8 -8 7 20 10 38 8 41 -3 2 -10 -13 -16
-33z"/>
<path d="M3847 1895 c-15 -30 -25 -55 -22 -55 7 0 57 101 53 106 -2 2 -16 -21
-31 -51z"/>
<path d="M2229 1927 c6 -8 7 -18 3 -23 -4 -5 -3 -6 2 -2 5 4 16 2 25 -4 9 -7
5 0 -8 15 -25 27 -43 39 -22 14z"/>
<path d="M2952 1903 c-15 -48 -8 -55 8 -8 7 20 10 38 8 41 -3 2 -10 -13 -16
-33z"/>
<path d="M4191 1909 c-6 -18 -9 -34 -7 -36 2 -2 9 10 15 28 6 18 9 34 7 36 -2
2 -9 -10 -15 -28z"/>
<path d="M2341 1916 c10 -9 129 -66 129 -61 0 5 -116 65 -126 65 -4 0 -5 -2
-3 -4z"/>
<path d="M2924 1894 c-7 -26 -8 -26 -16 -9 -5 14 -7 10 -3 -15 4 -35 4 -35 -7
-7 -7 15 -15 27 -19 27 -10 0 10 -58 21 -65 9 -5 43 85 35 93 -2 2 -7 -8 -11
-24z"/>
<path d="M3987 1885 c-9 -19 -15 -35 -12 -35 7 0 37 61 33 66 -3 2 -12 -12
-21 -31z"/>
<path d="M2846 1869 c-4 -23 -5 -44 -2 -46 2 -2 7 14 11 37 4 23 5 43 2 46 -2
3 -7 -14 -11 -37z"/>
<path d="M3007 1875 c-9 -19 -15 -35 -12 -35 7 0 37 61 33 66 -3 2 -12 -12
-21 -31z"/>
<path d="M2803 1851 c12 -27 23 -45 25 -41 3 9 -35 90 -43 90 -2 0 6 -22 18
-49z"/>
<path d="M2957 1845 c-15 -30 -25 -55 -22 -55 7 0 57 101 53 106 -2 2 -16 -21
-31 -51z"/>
<path d="M3045 1870 c-9 -16 -13 -30 -11 -30 3 0 12 14 21 30 9 17 13 30 11
30 -3 0 -12 -13 -21 -30z"/>
<path d="M1964 1873 c20 -24 9 -32 -12 -11 -9 9 -12 9 -12 1 0 -12 17 -26 36
-29 18 -3 12 25 -10 43 -21 18 -21 18 -2 -4z"/>
<path d="M4092 1825 c-17 -36 -30 -65 -27 -65 7 0 67 121 63 126 -2 2 -18 -26
-36 -61z"/>
<path d="M4277 1848 c-9 -23 -15 -43 -13 -45 2 -2 11 15 20 38 9 23 15 43 13
45 -2 2 -11 -15 -20 -38z"/>
<path d="M4402 1853 c-15 -48 -8 -55 8 -8 7 20 10 38 8 41 -3 2 -10 -13 -16
-33z"/>
<path d="M2314 1863 c2 -10 6 -17 10 -16 15 3 16 11 2 22 -12 10 -14 9 -12 -6z"/>
<path d="M4037 1845 c-9 -19 -15 -35 -12 -35 7 0 37 61 33 66 -3 2 -12 -12
-21 -31z"/>
<path d="M2002 1845 c4 -4 3 -14 -3 -21 -7 -8 -6 -14 2 -20 8 -5 9 -3 4 6 -11
18 32 4 69 -22 16 -11 26 -16 22 -9 -5 7 0 11 13 11 11 0 22 -4 26 -10 3 -5
12 -7 20 -4 8 4 31 -3 51 -15 19 -12 32 -17 29 -11 -10 16 6 12 59 -18 28 -16
57 -27 65 -24 8 3 11 0 7 -7 -5 -7 -1 -9 10 -4 13 5 15 3 9 -7 -5 -9 -4 -11 3
-6 7 4 12 2 12 -4 0 -6 5 -8 10 -5 6 3 10 1 10 -6 0 -7 3 -10 6 -6 4 3 13 0
21 -8 19 -20 27 -19 49 7 12 15 13 18 3 10 -22 -16 -48 -5 -44 18 3 14 -1 17
-12 13 -12 -5 -14 -3 -8 7 5 9 4 11 -4 6 -6 -4 -9 -12 -6 -17 8 -12 -2 -12
-25 1 -19 10 -21 41 -2 48 7 2 9 -5 7 -18 -2 -11 0 -18 6 -15 5 4 7 11 4 16
-4 5 -2 9 3 9 6 0 12 6 15 14 4 11 -1 13 -19 10 -14 -3 -23 -1 -20 5 3 5 -2
15 -11 22 -14 12 -16 12 -9 0 6 -9 4 -12 -5 -9 -8 3 -14 10 -14 16 0 6 -7 17
-15 24 -12 11 -12 11 -2 -4 15 -18 1 -34 -20 -23 -7 4 -2 -2 12 -13 13 -11 28
-18 32 -16 4 3 8 2 9 -3 0 -4 2 -15 4 -24 2 -12 -4 -16 -20 -15 -16 1 -22 6
-20 18 2 10 -1 21 -7 24 -7 4 -8 2 -4 -5 13 -20 -21 -23 -56 -5 -18 10 -39 17
-47 15 -7 -1 -10 2 -7 8 4 5 1 13 -5 17 -8 4 -9 3 -5 -4 4 -7 1 -12 -8 -12 -8
0 -17 4 -21 10 -3 5 -12 7 -20 4 -7 -3 -22 -1 -33 5 -13 7 -23 7 -32 -2 -10
-10 -12 -9 -7 5 3 9 -1 22 -11 30 -15 12 -16 11 -3 -4 20 -27 -9 -24 -45 4
-16 12 -26 18 -22 13z"/>
<path d="M2787 1795 c9 -19 18 -33 21 -31 4 5 -26 66 -33 66 -3 0 3 -16 12
-35z"/>
<path d="M3119 1763 l-34 -38 38 34 c20 19 37 36 37 38 0 8 -8 0 -41 -34z"/>
<path d="M3150 1733 l-65 -68 68 65 c62 60 72 70 64 70 -1 0 -32 -30 -67 -67z"/>
<path d="M4312 1725 c-17 -36 -30 -65 -27 -65 7 0 67 121 63 126 -2 2 -18 -26
-36 -61z"/>
<path d="M3004 1748 l-29 -33 33 29 c30 28 37 36 29 36 -2 0 -16 -15 -33 -32z"/>
<path d="M3030 1723 l-55 -58 58 55 c53 50 62 60 54 60 -1 0 -27 -26 -57 -57z"/>
<path d="M3210 1725 c-24 -25 -42 -45 -39 -45 3 0 25 20 49 45 24 25 42 45 39
45 -3 0 -25 -20 -49 -45z"/>
<path d="M3340 1713 l-55 -58 58 55 c53 50 62 60 54 60 -1 0 -27 -26 -57 -57z"/>
<path d="M1930 1751 c0 -13 73 -56 89 -53 7 2 10 -1 7 -7 -4 -5 -1 -13 5 -17
8 -4 9 -3 5 4 -9 15 18 16 44 2 13 -7 21 -7 25 0 3 5 -2 10 -12 10 -11 0 -28
6 -38 14 -10 7 -26 11 -34 9 -9 -2 -33 7 -54 21 -20 14 -37 21 -37 17z"/>
<path d="M2665 1710 c21 -22 41 -40 44 -40 3 0 -13 18 -34 40 -21 22 -41 40
-44 40 -3 0 13 -18 34 -40z"/>
<path d="M2151 1726 c-10 -12 -8 -17 11 -26 22 -11 22 -10 4 4 -32 26 3 20 58
-10 26 -14 45 -21 42 -15 -5 7 3 7 24 0 35 -13 41 -23 8 -14 -14 3 -9 -2 12
-14 19 -11 43 -17 54 -14 12 3 16 1 12 -6 -5 -7 -1 -8 10 -4 11 4 15 2 11 -4
-4 -6 3 -13 15 -16 24 -7 80 16 100 41 10 12 8 12 -14 -2 -15 -10 -32 -15 -37
-11 -6 3 -19 1 -30 -4 -11 -6 -21 -7 -23 -2 -6 15 -152 83 -186 86 -18 2 -39
8 -46 14 -10 8 -16 8 -25 -3z"/>
<path d="M2905 1720 c-9 -10 -22 -18 -27 -17 -6 1 -12 -6 -13 -17 -3 -14 4
-11 31 15 19 18 34 34 34 36 0 7 -8 2 -25 -17z"/>
<path d="M2934 1678 l-29 -33 33 29 c30 28 37 36 29 36 -2 0 -16 -15 -33 -32z"/>
<path d="M2122 1695 c4 -4 3 -14 -3 -21 -8 -9 -5 -11 9 -7 11 3 41 -4 66 -16
25 -11 46 -17 46 -13 0 4 4 1 9 -6 6 -10 11 -9 22 4 8 10 9 15 3 11 -13 -7
-96 18 -134 42 -14 8 -22 11 -18 6z"/>
<path d="M3735 1628 l-60 -63 63 60 c58 55 67 65 59 65 -1 0 -29 -28 -62 -62z"/>
<path d="M3594 1648 l-29 -33 33 29 c30 28 37 36 29 36 -2 0 -16 -15 -33 -32z"/>
<path d="M2063 1656 c15 -12 16 -14 2 -20 -8 -3 -15 -1 -15 4 0 6 -8 10 -17
10 -33 -1 16 -22 57 -25 21 -2 47 -8 59 -14 14 -8 21 -8 21 -1 0 5 -6 10 -14
10 -7 0 -35 11 -62 25 -27 14 -41 19 -31 11z"/>
<path d="M2130 1655 c0 -2 17 -13 38 -24 20 -11 31 -20 25 -21 -7 0 -13 -4
-13 -10 0 -5 7 -6 17 -3 10 4 14 2 10 -4 -10 -17 22 -24 46 -11 20 10 21 10 8
-5 -7 -10 -9 -17 -3 -17 5 0 15 6 21 14 9 11 8 15 -5 20 -10 4 -22 2 -28 -4
-16 -16 -30 -12 -16 5 11 13 10 14 -5 9 -11 -5 -16 -3 -12 3 3 5 -14 19 -38
31 -25 12 -45 20 -45 17z"/>
<path d="M3850 1583 l-65 -68 68 65 c62 60 72 70 64 70 -1 0 -32 -30 -67 -67z"/>
<path d="M1932 1632 c2 -8 7 -13 12 -12 5 1 12 -4 16 -10 4 -7 24 -14 43 -16
20 -2 49 -9 64 -17 25 -13 73 -8 73 7 0 3 -11 1 -25 -4 -16 -6 -25 -6 -25 0 0
6 -7 10 -16 10 -9 0 -33 10 -52 22 -20 12 -32 16 -27 8 6 -10 4 -12 -11 -6
-10 4 -23 8 -29 9 -5 1 -14 7 -18 12 -5 6 -7 5 -5 -3z"/>
<path d="M2281 1626 c-10 -11 -3 -17 35 -30 55 -19 57 -19 50 -7 -4 5 0 12 6
15 7 3 2 3 -11 0 -14 -4 -21 -2 -17 4 9 15 -24 24 -40 11 -12 -10 -13 -9 -8 5
8 20 0 21 -15 2z"/>
<path d="M2900 1625 c-31 -17 -44 -19 -34 -3 5 7 3 8 -5 3 -8 -5 -9 -11 -3
-17 9 -9 72 15 72 27 0 7 -2 6 -30 -10z"/>
<path d="M2931 1616 c-42 -22 -43 -24 -22 -31 12 -4 25 -4 28 -1 4 3 -2 6 -13
6 -13 1 -7 7 19 21 20 11 37 22 37 24 0 7 1 7 -49 -19z"/>
<path d="M2990 1615 c-25 -13 -41 -24 -37 -25 11 0 87 39 87 45 0 7 0 7 -50
-20z"/>
<path d="M1900 1612 c0 -6 19 -24 43 -40 61 -41 64 -43 64 -27 0 7 -12 17 -26
20 -14 4 -38 18 -53 33 -16 14 -28 21 -28 14z"/>
<path d="M3240 1585 c-25 -13 -41 -24 -37 -25 11 0 87 39 87 45 0 7 0 7 -50
-20z"/>
<path d="M3759 1573 l-34 -38 38 34 c20 19 37 36 37 38 0 8 -8 0 -41 -34z"/>
<path d="M3905 1558 l-50 -53 53 50 c28 27 52 51 52 52 0 8 -9 -1 -55 -49z"/>
<path d="M1890 1565 c33 -35 127 -85 127 -68 0 7 -8 13 -17 13 -20 0 -110 58
-110 71 0 5 -5 9 -12 9 -6 0 -1 -11 12 -25z"/>
<path d="M2145 1571 c-2 -5 15 -14 38 -21 23 -7 59 -21 80 -31 29 -15 42 -17
55 -9 15 10 14 11 -5 7 -12 -3 -23 -2 -25 2 -5 11 -138 59 -143 52z"/>
<path d="M2291 1566 c-10 -12 -8 -16 11 -21 13 -3 36 -11 53 -18 l29 -11 -24
-8 -25 -7 25 1 c14 1 39 -5 55 -12 28 -11 29 -13 10 -21 -19 -9 -19 -9 1 -6
12 3 29 0 39 -5 14 -9 15 -12 4 -20 -11 -8 -11 -9 2 -5 10 3 28 -6 43 -22 l27
-28 -22 -6 c-13 -4 -29 -1 -37 5 -12 10 -11 13 5 19 14 4 10 7 -15 11 l-32 5
20 -22 c11 -12 18 -24 15 -27 -3 -3 3 -8 15 -11 11 -3 20 -2 20 3 0 4 12 11
27 15 24 6 26 8 10 16 -10 6 -15 14 -12 18 2 5 -5 12 -18 15 -21 7 -22 7 -2
17 18 9 18 9 -3 5 -14 -3 -25 1 -29 10 -3 8 -12 14 -19 14 -8 0 -17 7 -20 15
-4 8 -12 15 -19 15 -8 0 -20 7 -28 15 -8 8 -34 22 -57 31 -30 12 -38 19 -28
25 8 5 9 9 2 9 -6 0 -17 -6 -23 -14z"/>
<path d="M2345 1560 c11 -5 27 -9 35 -9 9 0 8 4 -5 9 -11 5 -27 9 -35 9 -9 0
-8 -4 5 -9z"/>
<path d="M3360 1550 c-19 -11 -31 -19 -27 -20 11 0 67 29 67 35 0 7 -1 7 -40
-15z"/>
<path d="M2029 1549 c-11 -7 -9 -9 6 -9 11 0 44 -11 73 -25 29 -13 59 -22 68
-18 13 5 13 7 2 14 -10 7 -10 9 2 9 16 1 -48 39 -65 39 -5 0 5 -8 24 -18 30
-16 32 -18 13 -23 -12 -3 -22 -3 -24 1 -6 14 -86 38 -99 30z"/>
<path d="M3150 1550 c-21 -7 -21 -8 -5 -9 11 0 27 4 35 9 18 11 5 11 -30 0z"/>
<path d="M2528 1538 c9 -9 15 -9 24 0 9 9 7 12 -12 12 -19 0 -21 -3 -12 -12z"/>
<path d="M3420 1530 c-19 -11 -31 -19 -27 -20 11 0 67 29 67 35 0 7 -1 7 -40
-15z"/>
<path d="M3925 1508 l-40 -43 43 40 c39 36 47 45 39 45 -2 0 -21 -19 -42 -42z"/>
<path d="M3490 1515 c-25 -13 -41 -24 -37 -25 11 0 87 39 87 45 0 7 0 7 -50
-20z"/>
<path d="M4055 1498 l-40 -43 43 40 c39 36 47 45 39 45 -2 0 -21 -19 -42 -42z"/>
<path d="M2033 1517 c14 -11 15 -16 5 -20 -7 -3 -3 -6 8 -6 24 -1 222 -78 242
-94 10 -8 12 -7 10 3 -2 8 -23 21 -48 31 -147 56 -183 70 -208 85 -20 12 -23
12 -9 1z"/>
<path d="M3970 1485 c-24 -25 -42 -45 -39 -45 3 0 25 20 49 45 24 25 42 45 39
45 -3 0 -25 -20 -49 -45z"/>
<path d="M1818 1514 c-4 -3 0 -17 9 -30 8 -13 12 -24 7 -24 -4 0 7 -16 26 -35
18 -19 37 -32 42 -29 4 3 -5 17 -22 31 -16 13 -30 30 -30 35 0 6 9 3 19 -6 11
-10 22 -13 25 -8 5 9 -13 32 -24 29 -10 -2 -37 18 -41 31 -3 7 -7 10 -11 6z"/>
<path d="M2209 1513 c10 -4 8 -9 -9 -18 -22 -12 -18 -14 53 -37 43 -14 77 -22
77 -19 0 9 -71 36 -87 35 -7 -1 -10 3 -7 8 4 6 -3 8 -17 3 -19 -5 -21 -4 -9 4
8 6 29 9 45 6 29 -5 29 -4 -5 9 -19 8 -39 14 -45 14 -5 0 -4 -2 4 -5z"/>
<path d="M4080 1463 l-55 -58 58 55 c53 50 62 60 54 60 -1 0 -27 -26 -57 -57z"/>
<path d="M4149 1483 l-34 -38 38 34 c20 19 37 36 37 38 0 8 -8 0 -41 -34z"/>
<path d="M2301 1490 c-6 -3 7 -11 29 -17 22 -6 42 -7 44 -4 6 9 -61 29 -73 21z"/>
<path d="M3093 1493 c9 -2 25 -2 35 0 9 3 1 5 -18 5 -19 0 -27 -2 -17 -5z"/>
<path d="M4130 1415 c-41 -41 -72 -75 -69 -75 2 0 38 34 79 75 41 41 72 75 69
75 -2 0 -38 -34 -79 -75z"/>
<path d="M2031 1459 c-18 -7 -22 -29 -5 -29 3 0 3 4 0 9 -3 5 3 11 14 14 11 3
20 1 20 -4 0 -5 6 -9 13 -9 14 0 157 -58 172 -71 6 -4 16 -4 23 0 8 5 -2 12
-29 20 -22 7 -73 27 -113 45 -54 25 -78 31 -95 25z"/>
<path d="M3660 1445 c-25 -13 -41 -24 -37 -25 11 0 87 39 87 45 0 7 0 7 -50
-20z"/>
<path d="M2384 1453 c3 -6 1 -14 -4 -16 -6 -3 -5 -4 2 -3 7 2 21 -1 30 -5 10
-6 19 -5 23 1 3 5 -2 10 -12 10 -11 0 -25 6 -32 13 -9 8 -12 8 -7 0z"/>
<path d="M1937 1443 c-3 -5 7 -14 24 -20 17 -7 31 -7 35 -2 3 5 -3 9 -13 9
-11 0 -24 5 -30 11 -6 6 -13 7 -16 2z"/>
<path d="M3520 1435 c-19 -7 -28 -14 -20 -14 8 0 29 6 45 14 39 17 21 18 -25
0z"/>
<path d="M1918 1418 c9 -11 9 -18 3 -23 -15 -9 8 -42 34 -50 11 -4 32 -8 47
-10 32 -3 158 -66 207 -102 26 -20 30 -28 20 -35 -11 -8 -11 -9 2 -5 16 5 38
-21 44 -55 5 -24 15 -37 15 -19 0 7 5 9 13 5 6 -4 4 2 -5 13 -21 23 -22 30 -5
36 6 2 5 3 -3 2 -8 -1 -25 11 -38 27 -21 25 -22 28 -5 29 10 0 2 6 -17 13 -19
7 -74 35 -123 61 -48 26 -87 43 -87 39 0 -4 -7 1 -16 12 -8 10 -13 13 -9 7 10
-21 -30 -15 -56 7 -23 19 -23 19 -3 20 11 0 24 -4 30 -10 6 -6 15 -6 24 0 12
8 11 10 -6 10 -12 0 -34 10 -50 22 -16 12 -23 15 -16 6z"/>
<path d="M2022 1419 c-19 -7 -23 -29 -6 -29 3 0 2 5 -1 10 -3 6 1 10 9 10 8 0
18 5 21 10 7 12 7 12 -23 -1z"/>
<path d="M2346 1417 c5 -13 54 -39 54 -29 0 4 -13 15 -29 24 -18 9 -28 12 -25
5z"/>
<path d="M2056 1413 c-3 -3 20 -17 51 -29 31 -13 58 -22 60 -21 1 2 -22 15
-51 29 -30 15 -57 24 -60 21z"/>
<path d="M3128 1381 l-57 -39 30 -12 c18 -8 26 -16 19 -20 -6 -4 0 -11 16 -19
15 -6 29 -10 31 -7 2 2 -5 7 -18 11 -17 6 -19 9 -8 16 12 7 11 9 -1 9 -13 0
-13 1 0 10 13 9 13 10 0 11 -8 0 12 14 45 30 33 16 51 29 41 29 -11 0 -39 -12
-63 -26 -25 -14 -47 -24 -49 -21 -6 6 74 53 101 60 17 4 16 5 -5 6 -14 0 -50
-16 -82 -38z"/>
<path d="M3680 1405 c-14 -8 -20 -14 -15 -14 6 0 21 6 35 14 14 8 21 14 15 14
-5 0 -21 -6 -35 -14z"/>
<path d="M3775 1403 c-16 -9 -57 -27 -90 -40 -33 -13 -46 -21 -30 -18 34 7
155 61 155 69 0 8 0 8 -35 -11z"/>
<path d="M4054 1388 l-29 -33 33 29 c30 28 37 36 29 36 -2 0 -16 -15 -33 -32z"/>
<path d="M2021 1380 c-9 -5 -3 -9 16 -13 34 -6 37 -5 14 10 -10 6 -23 8 -30 3z"/>
<path d="M2315 1381 c3 -5 -3 -12 -12 -14 -10 -3 -3 -5 15 -6 23 -1 45 -13 77
-42 53 -49 60 -47 11 2 -32 32 -103 79 -91 60z"/>
<path d="M2433 1354 c15 -17 25 -32 23 -35 -3 -3 4 -10 14 -17 43 -26 5 30
-46 68 -10 8 -7 1 9 -16z"/>
<path d="M3191 1364 c-19 -8 -32 -17 -29 -19 3 -3 25 4 49 15 24 11 37 19 29
19 -8 0 -30 -6 -49 -15z"/>
<path d="M2554 1361 c5 -8 3 -17 -5 -23 -11 -8 -10 -9 3 -5 9 3 18 1 21 -6 2
-6 6 -1 10 12 3 13 3 20 0 17 -4 -3 -13 0 -21 7 -13 10 -14 9 -8 -2z"/>
<path d="M3212 1349 c-76 -30 -60 -32 23 -3 39 13 61 23 50 23 -11 0 -44 -9
-73 -20z"/>
<path d="M2105 1340 c17 -11 35 -20 41 -20 5 0 32 -14 59 -31 27 -17 43 -24
35 -14 -13 16 -141 85 -157 85 -5 0 6 -9 22 -20z"/>
<path d="M2205 1343 c17 -10 36 -16 44 -14 7 1 10 -2 7 -8 -4 -5 -1 -13 5 -17
7 -4 9 -3 6 3 -4 6 4 13 18 15 14 3 25 2 25 -1 0 -3 11 -11 23 -17 18 -8 24
-8 24 3 0 7 -8 13 -18 13 -10 0 -20 4 -23 9 -3 5 -14 7 -24 5 -9 -3 -37 2 -61
11 -56 19 -64 19 -26 -2z"/>
<path d="M3815 1329 c-33 -16 -49 -27 -35 -23 30 8 100 42 100 49 0 6 6 8 -65
-26z"/>
<path d="M3216 1328 c-22 -8 -25 -13 -15 -20 10 -7 5 -8 -16 -4 -35 7 -15 -7
25 -18 19 -6 21 -5 10 3 -13 10 -13 11 0 11 13 0 13 1 0 10 -13 9 -13 10 0 9
8 0 24 -4 35 -9 l20 -9 -20 -1 c-18 -1 -17 -2 4 -11 13 -5 29 -8 35 -5 6 2 2
5 -9 6 l-20 1 20 9 20 9 -20 1 c-17 2 -17 3 5 11 19 7 16 7 -15 3 -29 -3 -36
-2 -25 5 19 13 4 13 -34 -1z"/>
<path d="M1992 1321 c2 -7 37 -31 78 -53 41 -22 90 -51 108 -65 18 -14 31 -19
30 -11 -2 7 -43 35 -93 62 -49 27 -98 56 -108 65 -13 11 -18 12 -15 2z"/>
<path d="M2534 1298 c3 -11 0 -18 -7 -18 -8 0 -7 -3 2 -9 9 -6 19 -4 28 5 8 8
18 12 23 9 4 -3 10 2 14 10 7 18 2 19 -24 3 -17 -11 -22 -10 -31 2 -9 13 -10
12 -5 -2z"/>
<path d="M2290 1285 c7 -11 27 -31 44 -45 23 -18 27 -19 13 -4 -9 11 -14 24
-10 27 3 4 0 7 -7 7 -7 0 -22 8 -33 18 -19 16 -19 16 -7 -3z"/>
<path d="M3780 1275 c-19 -7 -28 -14 -20 -14 8 0 29 6 45 14 39 17 21 18 -25
0z"/>
<path d="M2373 1273 c4 -6 1 -14 -5 -16 -7 -3 3 -5 22 -5 19 0 28 2 20 5 -8 3
-21 11 -29 17 -11 8 -13 8 -8 -1z"/>
<path d="M2485 1270 c-3 -5 -2 -10 4 -10 5 0 12 -8 14 -17 4 -14 5 -13 6 4 1
24 -14 39 -24 23z"/>
<path d="M1735 1258 c8 -20 63 -48 82 -41 7 3 10 9 7 14 -3 5 -10 7 -15 3 -5
-3 -16 0 -24 6 -8 7 -15 9 -15 5 0 -5 -9 0 -20 10 -17 15 -20 16 -15 3z"/>
<path d="M1801 1261 c-9 -6 -10 -11 -2 -15 6 -4 11 -2 11 4 0 7 6 5 15 -4 9
-8 21 -13 29 -10 7 3 19 -2 26 -11 10 -12 10 -15 0 -15 -9 0 -7 -7 5 -20 10
-11 13 -20 8 -20 -6 0 -16 6 -23 14 -6 8 -17 13 -25 10 -7 -3 -16 0 -20 5 -3
6 -10 9 -15 6 -5 -3 -21 0 -37 7 -15 6 -30 12 -33 12 -3 1 -12 5 -20 10 -11 7
-10 4 2 -10 11 -13 43 -25 82 -33 47 -9 71 -20 91 -41 17 -17 33 -26 43 -23 9
4 13 2 9 -4 -4 -6 2 -18 13 -28 28 -25 25 -42 -2 -19 l-23 19 20 -23 c11 -13
29 -28 40 -34 16 -9 18 -8 8 3 -19 20 -16 33 5 19 9 -7 2 1 -15 17 -18 17 -30
33 -26 37 8 7 -27 47 -36 41 -4 -2 -12 5 -19 16 -18 29 0 23 52 -17 25 -19 53
-50 60 -67 l14 -32 -1 29 c-1 22 -14 38 -60 73 -33 25 -64 42 -72 39 -13 -5
-15 7 -6 42 1 1 7 -2 14 -7 51 -42 77 -62 78 -59 6 28 5 39 -3 45 -6 3 -8 1
-4 -5 3 -6 2 -13 -4 -17 -5 -3 -10 -3 -10 2 0 13 -63 47 -82 44 -9 -1 -19 3
-23 9 -3 6 -11 8 -16 4 -5 -3 -15 -1 -22 5 -7 5 -19 6 -26 2z"/>
<path d="M2445 1255 c4 -11 8 -28 9 -37 0 -10 4 -18 9 -18 11 0 -1 52 -15 65
-8 7 -9 4 -3 -10z"/>
<path d="M1642 1236 c6 -14 15 -23 19 -20 15 9 10 23 -11 34 -18 10 -19 9 -8
-14z"/>
<path d="M2544 1236 c-42 -18 -49 -24 -38 -34 11 -10 14 -10 14 3 0 8 8 15 18
15 9 0 28 9 42 20 30 24 29 23 -36 -4z"/>
<path d="M3315 1250 c11 -5 29 -8 40 -8 16 0 15 2 -5 8 -34 11 -60 11 -35 0z"/>
<path d="M2273 1235 c0 -8 5 -15 10 -15 5 0 16 -8 24 -17 8 -10 12 -13 9 -6
-4 6 2 14 11 16 16 4 16 5 -1 6 -11 0 -27 8 -36 16 -15 13 -17 13 -17 0z"/>
<path d="M2065 1233 c32 -29 84 -62 88 -55 3 4 -18 20 -46 36 -29 15 -47 24
-42 19z"/>
<path d="M1841 1221 c-7 -5 -9 -11 -4 -14 5 -3 15 -2 22 2 7 5 9 11 4 14 -5 3
-15 2 -22 -2z"/>
<path d="M2399 1209 c-10 -6 -7 -9 14 -9 29 0 35 5 14 13 -8 3 -20 1 -28 -4z"/>
<path d="M2011 1176 c-7 -8 -8 -17 -3 -20 6 -3 15 1 21 8 7 8 8 17 3 20 -6 3
-15 -1 -21 -8z"/>
<path d="M2206 1156 c21 -15 30 -14 19 3 -3 6 -14 11 -23 11 -13 0 -13 -2 4
-14z"/>
<path d="M1734 1137 c-3 -9 -13 -13 -25 -10 -12 4 -25 -1 -34 -13 -16 -23 -10
-35 13 -27 13 5 11 0 -6 -19 -14 -15 -19 -28 -13 -32 5 -4 13 -2 16 4 5 8 11
7 21 -1 11 -9 12 -15 2 -28 -7 -9 1 -4 18 11 23 22 33 25 42 16 9 -9 7 -18
-11 -37 -19 -22 -19 -23 -1 -9 26 22 52 5 31 -21 -10 -14 -10 -14 4 -4 12 10
18 10 30 0 7 -6 1 2 -14 19 -19 22 -25 34 -17 39 8 5 7 12 -5 25 -9 10 -17 25
-19 33 -1 8 -8 22 -15 31 -8 10 -9 16 -3 16 6 0 14 -4 17 -10 9 -14 27 -12 23
3 -3 6 -9 12 -14 12 -5 0 -15 4 -22 8 -7 5 -14 3 -18 -6z m4 -27 c-1 -3 4 -15
10 -26 9 -18 8 -25 -7 -38 -16 -15 -19 -15 -31 -1 -10 12 -16 13 -29 3 -9 -7
-5 0 8 15 19 20 21 29 13 40 -10 11 -7 14 13 13 14 -1 24 -4 23 -6z"/>
<path d="M1705 1070 c-3 -4 1 -13 9 -19 10 -9 16 -8 26 4 7 8 11 15 9 16 -31
6 -40 6 -44 -1z"/>
<path d="M2394 1121 c-27 -5 -30 -8 -18 -19 8 -7 14 -8 14 -2 0 5 9 10 20 10
11 0 20 5 20 10 0 6 -1 9 -2 9 -2 -1 -17 -4 -34 -8z"/>
<path d="M2330 1099 c0 -6 -13 -8 -32 -5 l-33 5 33 -11 c29 -10 33 -15 27 -37
-4 -14 -11 -28 -16 -29 -5 -2 -7 -8 -4 -12 3 -5 11 -7 18 -4 12 4 24 104 13
104 -4 0 -6 -5 -6 -11z"/>
<path d="M1586 1081 c-3 -5 1 -11 9 -15 15 -6 29 7 18 18 -9 9 -21 8 -27 -3z"/>
<path d="M2248 1065 c33 -15 41 -30 20 -37 -9 -3 -9 -6 0 -12 7 -4 15 0 19 11
4 10 11 21 17 25 7 5 7 8 1 9 -14 1 -38 6 -66 13 -14 3 -11 0 9 -9z"/>
<path d="M2366 1065 c4 -8 2 -15 -2 -15 -5 0 -10 -12 -10 -26 -2 -31 1 -28 21
19 13 32 13 37 0 37 -9 0 -12 -6 -9 -15z"/>
<path d="M2180 1055 c14 -8 30 -14 35 -14 6 0 -1 6 -15 14 -14 8 -29 14 -35
14 -5 0 1 -6 15 -14z"/>
<path d="M2087 946 c-4 -10 0 -12 14 -9 10 3 16 9 13 14 -8 13 -21 11 -27 -5z"/>
</g>
</svg>
